<svg xmlns="http://www.w3.org/2000/svg" width="1024" height="1024" viewBox="0 0 1024 1024">
<g>
<path d="M 572.31 728.16 C568.86,729.59 531.19,730.18 519.00,729.01 C459.11,723.23 403.63,699.67 362.57,662.57 C328.97,632.21 305.83,599.98 290.74,562.50 C268.87,508.23 264.27,448.71 277.63,393.22 C283.05,370.70 286.71,360.03 296.02,339.61 C310.82,307.11 330.38,279.82 356.67,255.00 C370.20,242.22 380.14,233.90 387.46,229.21 C391.33,226.74 397.84,222.52 401.92,219.84 C409.27,215.01 411.15,214.03 432.44,204.03 C448.22,196.61 467.90,190.33 490.62,185.48 C495.94,184.34 515.68,181.95 527.40,181.02 C544.11,179.70 556.03,179.73 565.71,181.12 C580.87,183.30 577.02,185.56 555.71,186.99 C536.47,188.27 527.96,189.34 515.99,191.95 C484.27,198.87 451.32,212.84 424.00,230.94 C405.81,243.00 395.54,251.41 381.20,266.00 C368.04,279.39 359.27,290.30 347.03,308.51 C337.18,323.16 333.02,330.97 326.33,347.32 C323.82,353.47 320.97,360.08 319.99,362.00 C317.54,366.84 311.75,388.52 308.07,406.60 C303.99,426.71 302.50,450.93 303.94,473.84 C305.29,495.31 307.52,507.37 315.11,534.14 C320.45,552.94 323.95,561.76 333.98,581.58 C347.42,608.18 361.41,627.32 382.15,647.53 C405.71,670.49 421.16,681.51 450.50,696.29 C484.49,713.42 520.57,722.77 559.79,724.63 C567.65,725.01 574.31,725.69 574.60,726.16 C574.89,726.62 573.86,727.53 572.31,728.16 ZM 589.00 710.96 C579.92,711.53 571.60,711.91 570.50,711.81 C569.40,711.71 566.03,711.49 563.00,711.32 C546.34,710.39 525.95,706.46 507.17,700.56 C493.07,696.13 485.48,692.82 469.26,684.00 C448.24,672.58 433.37,661.52 417.68,645.62 C400.83,628.55 386.92,608.92 376.49,587.50 C367.79,569.64 358.00,540.33 358.00,532.18 C358.00,527.68 360.46,531.50 364.99,543.00 C377.01,573.53 391.82,596.51 413.92,618.93 C428.53,633.75 433.49,637.96 448.50,648.25 C489.26,676.20 538.51,690.47 588.00,688.68 C639.19,686.82 685.45,669.60 726.00,637.30 C739.33,626.68 760.16,604.75 769.37,591.63 C778.96,577.98 782.01,573.24 784.12,568.75 C786.54,563.57 788.00,562.67 788.00,566.35 C788.00,569.02 778.63,589.42 773.24,598.50 C751.25,635.55 720.33,665.59 684.00,685.22 C673.08,691.12 650.17,700.20 638.00,703.47 C623.63,707.32 607.30,709.82 589.00,710.96 ZM 411.97 855.42 C405.38,857.37 397.08,857.34 390.55,855.34 C384.98,853.63 376.98,848.52 377.03,846.70 C377.05,846.04 378.80,843.49 380.92,841.03 L 384.78 836.56 L 390.03 839.42 C402.10,845.99 412.88,841.68 415.48,829.25 C416.30,825.31 415.34,825.15 410.48,828.45 C398.01,836.91 379.73,828.71 374.42,812.27 C372.08,805.03 372.10,791.61 374.46,783.50 C378.01,771.28 390.29,762.85 402.24,764.44 C407.74,765.17 413.02,767.45 414.31,769.66 C415.38,771.47 417.00,770.41 417.00,767.90 C417.00,766.06 417.59,765.94 425.22,766.21 L 433.45 766.50 L 433.13 799.89 C432.78,836.08 432.27,840.15 427.31,846.05 C423.78,850.24 418.46,853.49 411.97,855.42 ZM 307.03 823.00 L 304.50 830.50 L 284.76 831.08 L 285.27 828.29 C285.72,825.81 290.57,812.65 302.88,780.50 C304.99,775.00 308.89,764.52 311.54,757.21 L 316.36 743.93 L 325.32 744.21 C332.06,744.43 334.48,744.87 335.07,746.00 C336.14,748.04 342.72,765.02 345.54,773.00 C346.80,776.58 350.61,786.70 354.00,795.50 C361.23,814.26 366.00,827.84 366.00,829.69 C366.00,830.68 363.69,831.00 356.58,831.00 L 347.17 831.00 L 340.83 813.00 L 325.98 813.00 C315.17,813.00 310.91,813.34 310.34,814.25 C309.91,814.94 308.42,818.88 307.03,823.00 ZM 537.80 828.51 C533.36,830.94 531.13,831.45 524.00,831.72 C508.57,832.28 498.06,825.71 493.00,812.33 C491.11,807.33 490.86,805.08 491.25,796.50 C491.94,781.19 496.24,773.54 507.20,768.06 C512.72,765.30 514.24,765.00 522.70,765.00 C530.31,765.00 532.87,765.40 536.29,767.14 C543.70,770.92 546.90,774.05 550.21,780.78 C553.03,786.50 553.49,788.57 553.82,796.92 C554.13,804.97 553.83,807.44 551.97,812.38 C549.25,819.61 544.76,824.72 537.80,828.51 ZM 613.31 819.50 L 609.42 830.50 L 599.83 830.78 C591.40,831.03 590.15,830.85 589.52,829.28 C589.12,828.30 586.86,821.88 584.50,815.00 L 574.17 785.00 C570.86,775.38 566.51,763.00 564.52,757.50 C562.52,752.00 560.63,746.70 560.31,745.71 C559.79,744.06 560.55,743.95 570.10,744.21 L 580.46 744.50 L 588.19 770.00 C592.44,784.03 596.66,798.12 597.55,801.32 C598.45,804.53 599.38,806.95 599.62,806.72 C600.16,806.18 614.54,761.01 617.28,751.25 L 619.32 744.00 L 629.66 744.00 C635.35,744.00 640.00,744.12 640.00,744.27 C640.00,744.41 637.72,750.82 634.94,758.52 C632.15,766.21 627.02,780.60 623.53,790.50 C620.05,800.40 615.45,813.45 613.31,819.50 ZM 762.21 830.02 C753.52,833.27 741.23,832.31 732.42,827.69 C727.95,825.35 722.35,819.04 719.81,813.50 C717.90,809.30 717.53,806.82 717.54,798.00 C717.54,788.17 717.74,787.11 720.70,781.41 C726.88,769.53 734.61,765.06 749.04,765.02 C758.05,765.00 758.90,765.18 764.04,768.26 C773.68,774.00 778.56,784.72 777.82,798.50 L 777.50 804.50 L 757.25 804.77 C737.78,805.03 737.00,805.12 737.00,807.04 C737.00,810.29 743.01,816.00 747.49,817.00 C752.35,818.09 759.27,816.72 762.77,813.97 C764.15,812.88 765.79,812.00 766.43,812.00 C767.91,812.00 775.00,819.21 775.00,820.72 C775.00,822.67 767.74,827.95 762.21,830.02 ZM 258.07 505.96 C255.32,507.43 242.22,507.17 237.70,505.56 C228.64,502.32 218.53,492.46 213.18,481.61 C207.93,470.98 205.04,457.82 204.03,440.00 C203.47,429.96 202.57,422.91 201.49,420.00 C198.38,411.60 195.42,389.70 197.99,394.09 C198.51,394.97 199.88,400.11 201.06,405.53 C203.37,416.21 207.63,425.05 211.26,426.71 C217.67,429.64 236.65,448.13 243.24,457.87 C249.64,467.33 254.54,478.13 257.58,489.49 C260.56,500.61 260.68,504.57 258.07,505.96 ZM 681.61 829.01 C671.78,834.00 659.52,832.63 653.30,825.87 C648.06,820.17 647.56,817.27 647.19,790.75 L 646.85 766.00 L 666.00 766.00 L 666.00 812.09 L 668.45 814.55 C672.00,818.09 679.63,818.03 683.92,814.41 L 687.00 811.82 L 687.00 766.00 L 704.71 766.00 L 705.15 775.75 C705.40,781.11 705.35,795.62 705.05,808.00 L 704.50 830.50 L 696.50 830.50 C688.97,830.50 688.48,830.37 688.18,828.25 C688.00,827.01 687.78,826.01 687.68,826.01 C687.58,826.02 684.85,827.37 681.61,829.01 ZM 257.42 433.79 C256.56,437.24 256.22,437.51 252.50,437.71 C244.46,438.12 235.24,433.49 228.20,425.49 C223.50,420.15 220.29,412.47 218.78,403.00 C217.43,394.46 218.39,372.13 220.45,364.33 C221.79,359.26 221.90,356.67 221.08,349.83 C220.09,341.57 220.95,319.72 222.32,318.35 C222.69,317.97 223.03,323.48 223.06,330.58 C223.15,350.67 223.39,351.45 232.17,360.90 C240.45,369.82 249.01,384.08 252.76,395.20 C255.68,403.87 258.67,428.70 257.42,433.79 ZM 270.82 368.25 C269.97,371.03 269.14,372.00 267.59,371.99 C263.65,371.97 255.50,367.30 251.16,362.58 C244.65,355.48 242.83,350.48 242.25,338.06 C241.61,324.48 243.74,313.68 249.44,301.50 C252.71,294.49 253.92,290.42 254.86,283.12 C255.53,277.96 256.74,272.56 257.56,271.12 C258.93,268.71 259.00,269.25 258.43,278.00 C257.85,287.08 257.93,287.67 260.42,291.31 C264.51,297.30 266.53,301.78 269.85,312.17 C276.11,331.77 276.42,349.81 270.82,368.25 ZM 330.61 496.84 C324.72,499.01 317.61,500.27 316.65,499.32 C315.40,498.06 316.01,481.37 317.53,475.46 C321.39,460.43 332.17,447.46 346.87,440.16 C351.47,437.87 356.23,436.00 357.45,436.00 C358.66,436.00 361.85,434.89 364.53,433.53 C367.21,432.18 369.59,431.25 369.82,431.48 C370.04,431.71 369.32,433.38 368.20,435.20 C366.99,437.17 365.38,443.23 364.20,450.26 C360.26,473.65 348.20,490.37 330.61,496.84 ZM 295.42 314.09 C293.19,316.55 293.03,316.53 288.32,313.12 C282.81,309.12 278.34,303.44 276.53,298.13 C274.56,292.36 274.58,281.46 276.56,273.64 C278.65,265.40 285.93,250.53 291.03,244.08 C293.32,241.19 296.20,235.85 297.46,232.17 C300.28,223.94 303.10,218.00 304.19,218.00 C305.50,218.00 305.16,219.58 302.37,226.55 C299.29,234.25 299.45,238.05 303.41,250.54 C307.27,262.73 307.75,273.29 305.04,286.58 C302.65,298.31 298.21,311.00 295.42,314.09 ZM 334.21 434.44 C328.28,435.98 315.91,436.58 314.72,435.38 C313.28,433.95 318.04,416.31 321.41,410.57 C325.17,404.14 335.62,394.97 344.02,390.71 C350.17,387.60 353.19,386.74 361.00,385.91 C366.23,385.35 372.19,384.53 374.25,384.09 C376.31,383.64 378.00,383.58 378.00,383.94 C378.00,384.31 376.85,386.16 375.45,388.06 C374.05,389.95 370.46,396.53 367.48,402.69 C363.11,411.69 360.73,415.23 355.28,420.80 C347.07,429.19 342.12,432.39 334.21,434.44 ZM 357.12 376.22 C347.07,379.75 330.51,379.06 328.00,374.99 C327.57,374.30 328.14,370.98 329.28,367.62 C330.92,362.71 332.64,360.20 337.92,354.92 C341.54,351.30 346.66,347.08 349.31,345.54 C358.80,340.02 374.06,337.59 383.50,340.12 C385.70,340.70 388.92,341.41 390.65,341.69 L 393.81 342.20 L 387.29 350.35 C374.17,366.76 367.32,372.63 357.12,376.22 ZM 333.55 262.25 C331.03,265.41 328.35,268.00 327.60,268.00 C325.42,268.00 319.44,260.72 317.54,255.75 C316.20,252.24 315.89,249.03 316.19,241.84 C316.71,229.21 320.01,222.57 332.69,208.70 C337.82,203.09 343.60,196.14 345.54,193.25 C349.19,187.82 351.90,186.15 350.42,190.25 C349.98,191.49 349.53,198.80 349.42,206.50 C349.04,234.46 345.34,247.43 333.55,262.25 ZM 466.00 809.93 L 466.00 831.00 L 448.00 831.00 L 448.00 766.00 L 464.75 766.00 L 465.39 769.18 L 466.02 772.37 L 469.50 769.00 C472.49,766.10 473.82,765.57 478.99,765.19 L 485.00 764.76 L 485.00 782.00 L 479.97 782.00 C474.01,782.00 468.58,784.04 467.08,786.85 C466.40,788.11 466.00,796.76 466.00,809.93 ZM 399.50 323.84 C387.02,330.11 375.74,330.17 359.63,324.05 C355.40,322.44 356.41,319.63 364.11,311.53 C371.91,303.31 378.35,299.57 388.50,297.37 C398.51,295.20 405.45,295.65 416.00,299.13 C421.23,300.86 426.06,302.43 426.75,302.61 C428.99,303.20 428.07,304.94 424.75,306.39 C422.96,307.17 419.70,309.45 417.50,311.45 C410.66,317.69 407.76,319.68 399.50,323.84 ZM 373.75 227.95 C371.47,229.63 369.23,231.00 368.78,231.00 C367.37,231.00 362.06,221.83 361.38,218.23 C359.65,209.00 363.32,197.63 371.43,187.09 C376.00,181.15 385.36,173.39 392.07,169.96 C394.06,168.95 396.52,166.85 397.53,165.31 C399.96,161.60 409.06,152.00 410.15,152.00 C411.83,152.00 410.93,153.66 406.89,157.99 C400.58,164.77 400.19,165.73 399.02,177.50 C398.42,183.55 397.23,190.75 396.36,193.50 C392.46,205.94 381.98,221.90 373.75,227.95 ZM 430.55 284.54 C424.65,286.29 407.56,287.32 404.00,286.13 C396.68,283.70 388.00,277.40 388.00,274.53 C388.00,272.22 402.99,262.08 408.98,260.33 C413.16,259.10 416.88,258.86 424.71,259.30 C435.96,259.94 440.20,261.35 448.95,267.37 C451.85,269.37 454.62,271.00 455.11,271.00 C457.44,271.00 455.59,272.98 452.25,274.06 C450.19,274.73 445.58,277.03 442.01,279.17 C438.44,281.31 433.28,283.73 430.55,284.54 ZM 429.08 196.88 C425.86,198.60 422.51,200.00 421.64,200.00 C419.22,200.00 416.63,189.92 417.32,183.23 C418.63,170.50 434.18,155.05 451.38,149.39 C454.20,148.46 457.57,146.87 458.88,145.85 C460.20,144.83 461.77,144.01 462.38,144.02 C463.13,144.03 463.10,144.29 462.29,144.80 C461.63,145.22 460.19,149.38 459.10,154.03 C458.01,158.69 456.38,164.28 455.46,166.45 C450.76,177.66 438.40,191.91 429.08,196.88 ZM 477.50 251.97 C471.53,254.16 452.53,255.77 449.00,254.39 C448.17,254.07 444.05,251.75 439.82,249.25 C431.37,244.23 427.57,239.43 429.87,236.66 C431.54,234.65 442.28,230.43 449.57,228.93 C461.32,226.51 476.62,231.77 486.09,241.50 C488.23,243.70 490.10,245.88 490.24,246.34 C490.38,246.81 488.92,247.77 487.00,248.48 C485.08,249.18 480.80,250.76 477.50,251.97 ZM 487.33 174.85 C483.93,176.55 479.38,178.24 477.22,178.58 C473.68,179.15 473.22,178.97 472.66,176.85 C469.82,166.26 475.23,154.03 485.72,147.32 C495.79,140.87 513.63,134.91 516.86,136.91 C517.41,137.25 516.45,140.94 514.58,145.66 C509.61,158.16 499.97,168.48 487.33,174.85 ZM 521.02 232.70 C519.28,233.92 516.13,234.48 510.04,234.67 C503.02,234.88 500.40,234.51 495.29,232.54 C486.21,229.05 478.51,222.33 476.57,216.21 C475.94,214.24 476.44,213.69 480.56,211.87 C484.58,210.09 486.79,209.84 495.40,210.16 C503.93,210.47 506.40,210.96 511.10,213.26 C516.48,215.89 529.00,227.54 529.00,229.91 C529.00,230.51 527.75,231.00 526.22,231.00 C524.69,231.00 522.35,231.77 521.02,232.70 ZM 541.47 168.94 C534.23,171.96 525.07,173.76 523.75,172.42 C522.05,170.71 523.09,163.18 525.75,157.98 C530.65,148.38 544.87,141.00 558.46,141.00 C561.89,141.00 566.14,140.50 567.90,139.88 C571.52,138.62 573.14,139.39 570.80,141.26 C569.94,141.94 567.48,145.25 565.34,148.62 C560.01,156.95 550.21,165.31 541.47,168.94 ZM 516.18 815.75 C519.15,817.18 526.56,817.31 529.06,815.97 C530.12,815.40 531.96,813.04 533.15,810.72 C537.07,803.04 535.68,785.73 530.78,781.30 C529.35,780.00 527.17,779.50 523.00,779.50 C513.29,779.50 510.00,784.31 510.00,798.51 C510.00,808.07 512.04,813.76 516.18,815.75 ZM 397.37 815.08 C401.60,817.66 406.93,817.52 411.10,814.71 L 414.50 812.42 L 414.78 797.84 L 415.05 783.26 L 412.28 781.39 C408.38,778.75 399.97,778.81 397.00,781.50 C393.39,784.76 391.86,788.80 391.27,796.60 C390.57,805.84 392.68,812.22 397.37,815.08 ZM 618.92 196.07 C608.72,200.00 600.53,200.78 596.44,198.20 C593.33,196.23 584.00,186.16 584.00,184.77 C584.00,184.35 584.59,184.00 585.31,184.00 C586.04,184.00 587.92,182.65 589.51,180.99 C592.76,177.60 597.41,176.00 604.00,176.03 C609.51,176.05 615.05,178.49 621.00,183.50 C623.47,185.58 626.96,187.91 628.75,188.66 C632.72,190.33 632.91,191.77 629.25,192.56 C627.74,192.88 623.09,194.47 618.92,196.07 ZM 567.39 224.41 C566.53,224.73 561.49,224.98 556.17,224.96 C548.21,224.92 545.44,224.48 540.52,222.43 C533.51,219.52 528.20,214.69 525.03,208.35 C522.92,204.12 522.88,203.69 524.42,202.15 C525.71,200.87 527.94,200.51 534.29,200.55 C541.38,200.60 543.39,201.03 549.00,203.74 C557.48,207.83 563.50,213.07 566.51,219.02 C568.60,223.15 568.72,223.89 567.39,224.41 ZM 590.20 172.04 C583.89,174.42 569.66,175.88 568.66,174.26 C567.54,172.44 571.01,163.05 574.11,159.53 C579.34,153.57 586.40,150.87 598.29,150.26 C608.20,149.75 613.00,150.62 613.00,152.90 C613.00,154.62 606.80,161.43 601.45,165.58 C598.39,167.95 593.33,170.86 590.20,172.04 ZM 597.86 216.11 C593.92,218.61 580.66,215.69 573.04,210.65 C569.08,208.03 565.37,202.08 566.25,199.78 C566.97,197.91 576.43,196.69 580.71,197.92 C585.67,199.34 592.88,203.97 595.42,207.37 C598.62,211.64 599.56,215.03 597.86,216.11 ZM 316.55 797.08 C317.34,798.36 333.73,798.25 334.53,796.95 C335.08,796.05 330.00,778.14 326.80,769.75 C325.01,765.03 323.90,766.17 322.57,774.08 C322.24,776.06 320.62,781.83 318.98,786.91 C317.33,792.00 316.24,796.57 316.55,797.08 ZM 736.40 790.59 C736.82,791.69 739.47,792.00 748.47,792.00 C759.43,792.00 760.00,791.90 760.00,789.95 C760.00,787.06 757.41,782.40 754.78,780.56 C751.74,778.43 746.16,778.61 742.30,780.96 C738.78,783.11 735.55,788.38 736.40,790.59 ZM 405.74 338.00 C405.60,338.00 403.91,338.43 401.99,338.97 L 398.50 339.93 L 400.86 337.97 C403.39,335.86 406.00,335.37 406.00,337.00 C406.00,337.55 405.88,338.00 405.74,338.00 Z" fill="rgb(8,139,10)"/>
<path d="M 591.00 658.01 C587.42,658.52 575.72,658.91 565.00,658.89 C539.16,658.82 527.49,656.86 505.80,648.94 C492.78,644.19 480.25,638.10 479.51,636.16 C478.88,634.52 480.52,634.67 496.00,637.66 C509.76,640.32 534.74,640.04 548.95,637.07 C559.31,634.90 577.79,628.52 588.79,623.32 C605.03,615.64 638.84,590.25 664.79,566.25 C670.45,561.02 677.78,554.57 681.08,551.93 C691.04,543.97 707.95,535.96 725.43,530.92 C735.99,527.87 740.00,527.34 740.00,528.99 C740.00,529.53 738.39,534.81 736.42,540.74 C725.31,574.12 699.29,607.90 668.43,628.97 C657.35,636.54 638.15,645.74 623.19,650.66 C610.17,654.93 606.07,655.87 591.00,658.01 ZM 509.00 601.00 C504.69,602.10 500.67,603.00 500.05,603.00 C497.60,603.00 498.15,600.01 502.25,590.97 C506.63,581.32 507.76,578.56 509.21,578.39 C509.77,578.32 510.39,578.65 511.25,579.11 C511.43,579.20 511.61,579.30 511.80,579.40 C515.63,581.38 518.07,581.41 522.51,579.56 C530.70,576.14 540.28,563.48 542.48,553.18 C543.09,550.34 542.89,549.78 541.09,549.31 C539.94,549.01 539.00,548.62 539.00,548.43 C539.00,548.25 540.37,546.06 542.05,543.57 C544.45,540.03 546.02,538.81 549.30,537.94 C551.61,537.33 558.67,535.10 565.00,532.98 C571.33,530.86 579.88,528.37 584.00,527.44 C588.12,526.52 592.62,525.20 594.00,524.51 C600.82,521.12 654.53,513.97 673.75,513.90 L 687.00 513.85 L 687.00 508.98 C687.00,502.28 688.82,501.65 689.20,508.22 C689.49,513.41 689.56,513.51 693.00,514.04 C699.10,514.97 699.68,514.46 700.39,507.48 L 701.04 501.12 L 696.51 496.46 C690.90,490.68 689.01,491.00 688.97,497.72 C688.94,502.14 688.83,502.35 687.47,500.56 C686.66,499.49 686.00,496.93 686.00,494.87 C686.00,488.38 681.82,488.82 680.58,495.44 C679.99,498.55 674.70,504.00 672.25,504.00 C670.38,504.00 666.12,498.28 664.60,493.72 C661.99,485.90 662.48,476.59 665.89,469.39 C668.01,464.91 669.46,463.10 671.28,462.64 C673.34,462.13 673.88,461.24 674.39,457.51 C674.72,455.03 675.26,451.08 675.58,448.74 C676.46,442.26 680.97,433.82 684.69,431.70 C687.61,430.04 688.13,430.01 690.85,431.42 C694.62,433.37 698.00,437.63 698.00,440.43 C698.00,443.39 699.85,445.00 703.25,445.00 C706.95,445.00 710.56,448.66 711.96,453.84 C712.56,456.08 713.49,458.19 714.03,458.52 C714.56,458.85 715.00,463.79 715.00,469.50 C715.00,482.08 711.93,492.28 706.40,498.04 C703.46,501.11 703.00,502.26 703.00,506.59 C703.00,512.40 704.19,514.00 708.51,514.00 C710.22,514.00 712.44,514.60 713.45,515.34 C715.10,516.55 714.73,516.75 709.90,517.33 C706.93,517.69 701.74,517.99 698.36,517.99 C690.57,518.00 669.03,522.18 654.62,526.47 C648.50,528.29 642.23,530.07 640.67,530.43 C638.12,531.01 627.05,535.75 612.00,542.69 C603.20,546.75 595.30,551.74 583.11,560.92 C565.31,574.34 565.18,574.43 552.54,582.16 C539.82,589.95 521.85,597.72 509.00,601.00 ZM 271.46 370.07 C270.34,372.25 269.25,372.99 267.22,372.95 C260.39,372.84 248.15,363.01 243.77,354.10 C241.73,349.96 241.50,348.05 241.50,335.00 C241.50,318.21 242.81,311.99 249.01,299.42 C251.21,294.98 253.00,289.90 253.00,288.13 C253.00,280.31 262.70,246.90 265.91,243.69 C268.24,241.36 268.01,244.32 265.04,254.66 C261.85,265.80 259.00,280.11 259.00,285.05 C259.00,286.59 260.06,289.12 261.36,290.67 C268.53,299.26 274.70,319.31 275.63,337.00 C276.28,349.38 274.39,364.42 271.46,370.07 ZM 332.37 497.44 C328.99,498.79 323.96,500.20 321.19,500.57 L 316.16 501.24 L 315.09 497.37 C311.73,485.30 317.42,465.35 327.62,453.42 C334.28,445.61 345.27,438.59 355.82,435.39 L 364.50 432.75 L 376.72 420.13 C383.44,413.18 388.96,408.20 388.97,409.05 C389.01,411.03 384.18,418.67 379.74,423.66 C370.60,433.94 367.00,439.15 367.00,442.08 C367.00,447.30 363.94,460.25 361.11,467.02 C354.99,481.67 344.79,492.47 332.37,497.44 ZM 296.29 315.23 C294.14,317.61 293.15,317.48 287.89,314.14 C281.33,309.98 277.23,304.48 274.83,296.62 C272.95,290.47 272.84,288.93 273.82,282.12 C274.42,277.93 275.87,271.58 277.04,268.00 C279.53,260.36 287.11,246.39 291.63,241.11 C293.38,239.07 295.34,235.40 295.98,232.95 C298.81,222.10 314.83,193.71 314.96,199.32 C314.98,200.32 313.85,203.10 312.45,205.49 C309.09,211.24 301.00,232.63 301.00,235.79 C301.00,237.16 302.46,242.83 304.25,248.39 C307.21,257.60 307.50,259.62 307.49,271.00 C307.48,279.53 306.89,286.04 305.63,291.50 C303.62,300.25 298.82,312.43 296.29,315.23 ZM 334.50 435.64 C328.68,437.20 314.40,437.45 313.51,436.02 C312.68,434.67 313.72,429.05 316.60,419.33 C318.24,413.78 320.25,409.60 322.86,406.29 C334.40,391.70 349.83,384.10 368.09,384.02 C371.73,384.00 373.83,383.22 378.21,380.25 C396.39,367.91 399.36,366.00 400.34,366.00 C402.09,366.00 393.11,374.73 384.83,381.09 C376.02,387.84 374.22,390.11 370.73,398.78 C366.77,408.63 362.04,415.95 355.00,423.10 C348.09,430.12 342.61,433.48 334.50,435.64 ZM 270.82 368.25 C276.42,349.81 276.11,331.77 269.85,312.17 C266.53,301.78 264.51,297.30 260.42,291.31 C257.93,287.67 257.85,287.08 258.43,278.00 C259.00,269.25 258.93,268.71 257.56,271.12 C256.74,272.56 255.53,277.96 254.86,283.12 C253.92,290.42 252.71,294.49 249.44,301.50 C243.74,313.68 241.61,324.48 242.25,338.06 C242.83,350.48 244.65,355.48 251.16,362.58 C255.50,367.30 263.65,371.97 267.59,371.99 C269.14,372.00 269.97,371.03 270.82,368.25 ZM 330.61 496.84 C348.20,490.37 360.26,473.65 364.20,450.26 C365.38,443.23 366.99,437.17 368.20,435.20 C369.32,433.38 370.04,431.71 369.82,431.48 C369.59,431.25 367.21,432.18 364.53,433.53 C361.85,434.89 358.66,436.00 357.45,436.00 C356.23,436.00 351.47,437.87 346.87,440.16 C332.17,447.46 321.39,460.43 317.53,475.46 C316.01,481.37 315.40,498.06 316.65,499.32 C317.61,500.27 324.72,499.01 330.61,496.84 ZM 338.00 258.34 C335.41,262.28 332.19,266.50 330.86,267.72 C328.46,269.92 328.40,269.92 325.36,268.07 C317.12,263.06 312.68,249.77 314.99,237.00 C316.76,227.25 321.93,218.46 333.38,205.74 C338.95,199.56 345.73,191.12 348.45,187.00 C357.45,173.34 369.14,159.80 370.63,161.30 C371.25,161.91 365.87,169.59 359.77,176.80 C358.23,178.61 355.40,183.22 353.48,187.03 L 349.99 193.97 L 350.61 205.24 C351.79,226.41 347.71,243.60 338.00,258.34 ZM 355.22 378.01 C351.53,379.15 346.17,379.97 342.64,379.92 C336.07,379.84 335.54,379.73 329.67,377.25 C326.03,375.71 325.88,375.46 326.50,372.13 C329.06,358.48 344.19,344.15 360.41,340.02 C369.85,337.61 377.50,337.46 385.42,339.52 L 391.26 341.04 L 398.39 337.52 C402.31,335.58 406.11,334.00 406.84,334.00 C407.57,334.00 411.24,332.65 415.00,331.00 C422.52,327.70 423.00,327.58 423.00,328.93 C423.00,329.92 414.98,334.57 401.27,341.54 C391.44,346.54 390.47,347.29 387.19,352.49 C380.13,363.69 366.57,374.51 355.22,378.01 ZM 295.42 314.09 C298.21,311.00 302.65,298.31 305.04,286.58 C307.75,273.29 307.27,262.73 303.41,250.54 C299.45,238.05 299.29,234.25 302.37,226.55 C305.16,219.58 305.50,218.00 304.19,218.00 C303.10,218.00 300.28,223.94 297.46,232.17 C296.20,235.85 293.32,241.19 291.03,244.08 C285.93,250.53 278.65,265.40 276.56,273.64 C274.58,281.46 274.56,292.36 276.53,298.13 C278.34,303.44 282.81,309.12 288.32,313.12 C293.03,316.53 293.19,316.55 295.42,314.09 ZM 334.21 434.44 C342.12,432.39 347.07,429.19 355.28,420.80 C360.73,415.23 363.11,411.69 367.48,402.69 C370.46,396.53 374.05,389.95 375.45,388.06 C376.85,386.16 378.00,384.31 378.00,383.94 C378.00,383.58 376.31,383.64 374.25,384.09 C372.19,384.53 366.23,385.35 361.00,385.91 C353.19,386.74 350.17,387.60 344.02,390.71 C335.62,394.97 325.17,404.14 321.41,410.57 C318.04,416.31 313.28,433.95 314.72,435.38 C315.91,436.58 328.28,435.98 334.21,434.44 ZM 400.65 324.50 C392.21,328.78 390.62,329.23 382.94,329.59 C376.51,329.89 372.87,329.51 367.66,327.97 C359.60,325.60 355.00,323.38 355.00,321.86 C355.00,320.10 361.57,311.65 366.38,307.21 C378.77,295.80 399.40,291.71 414.70,297.63 C424.05,301.25 429.25,301.59 438.12,299.15 C448.98,296.16 455.37,295.38 454.80,297.12 C454.55,297.88 449.88,299.79 444.42,301.37 C426.17,306.66 423.40,307.91 416.48,314.02 C412.76,317.30 405.91,321.84 400.65,324.50 ZM 379.56 223.63 C369.88,233.69 368.27,234.08 363.99,227.32 C360.41,221.68 359.58,217.78 360.24,209.65 C361.28,196.65 371.88,181.87 387.71,171.33 C392.48,168.16 397.24,164.09 398.62,162.00 C402.89,155.55 420.40,141.01 423.91,141.00 C424.69,141.00 420.14,146.30 413.80,152.77 C407.46,159.25 402.02,165.44 401.70,166.52 C401.37,167.61 400.62,173.58 400.02,179.80 C398.32,197.47 392.29,210.39 379.56,223.63 ZM 357.12 376.22 C367.32,372.63 374.17,366.76 387.29,350.35 L 393.81 342.20 L 390.65 341.69 C388.92,341.41 385.70,340.70 383.50,340.12 C374.06,337.59 358.80,340.02 349.31,345.54 C346.66,347.08 341.54,351.30 337.92,354.92 C332.64,360.20 330.92,362.71 329.28,367.62 C328.14,370.98 327.57,374.30 328.00,374.99 C330.51,379.06 347.07,379.75 357.12,376.22 ZM 333.55 262.25 C345.34,247.43 349.04,234.46 349.42,206.50 C349.53,198.80 349.98,191.49 350.42,190.25 C351.90,186.15 349.19,187.82 345.54,193.25 C343.60,196.14 337.82,203.09 332.69,208.70 C320.01,222.57 316.71,229.21 316.19,241.84 C315.89,249.03 316.20,252.24 317.54,255.75 C319.44,260.72 325.42,268.00 327.60,268.00 C328.35,268.00 331.03,265.41 333.55,262.25 ZM 480.10 604.41 C478.20,606.13 465.18,607.60 463.40,606.30 C462.31,605.51 460.31,592.85 460.19,586.00 C460.16,584.08 459.69,577.10 459.15,570.50 C458.61,563.90 458.55,558.05 459.01,557.49 C459.47,556.93 460.00,554.68 460.18,552.50 C460.39,549.85 461.03,548.42 462.07,548.22 C462.94,548.06 468.34,550.45 474.07,553.54 C482.44,558.05 485.35,560.23 488.80,564.58 C491.37,567.82 493.88,570.00 495.05,570.00 C496.38,570.00 497.00,570.68 497.00,572.16 C497.00,574.67 482.61,602.14 480.10,604.41 ZM 428.49 286.46 C425.24,287.31 418.74,287.97 414.04,287.94 C403.85,287.86 396.97,285.52 390.80,280.05 C385.44,275.29 385.99,272.94 393.75,267.38 C405.39,259.03 407.04,258.50 421.00,258.54 C434.56,258.58 439.84,259.65 445.10,263.46 C451.59,268.15 454.53,269.39 460.79,270.07 C471.39,271.22 470.36,273.32 458.63,274.46 C452.62,275.05 450.15,275.92 442.95,280.04 C438.25,282.72 431.74,285.61 428.49,286.46 ZM 429.52 197.93 C425.67,200.17 422.18,202.00 421.75,202.00 C420.25,202.00 417.05,195.53 416.40,191.19 C414.75,180.20 418.20,171.82 428.28,162.31 C433.99,156.91 445.20,149.95 451.50,147.89 C453.70,147.17 458.42,144.25 462.00,141.41 C470.41,134.72 481.62,127.89 485.75,126.95 C487.54,126.54 489.00,126.34 489.00,126.51 C489.00,126.67 486.41,128.50 483.25,130.58 C472.93,137.35 462.03,146.98 461.46,149.84 C456.95,172.21 446.40,188.10 429.52,197.93 ZM 399.50 323.84 C407.76,319.68 410.66,317.69 417.50,311.45 C419.70,309.45 422.96,307.17 424.75,306.39 C428.07,304.94 428.99,303.20 426.75,302.61 C426.06,302.43 421.23,300.86 416.00,299.13 C405.45,295.65 398.51,295.20 388.50,297.37 C378.35,299.57 371.91,303.31 364.11,311.53 C356.41,319.63 355.40,322.44 359.63,324.05 C375.74,330.17 387.02,330.11 399.50,323.84 ZM 373.75 227.95 C381.98,221.90 392.46,205.94 396.36,193.50 C397.23,190.75 398.42,183.55 399.02,177.50 C400.19,165.73 400.58,164.77 406.89,157.99 C410.93,153.66 411.83,152.00 410.15,152.00 C409.06,152.00 399.96,161.60 397.53,165.31 C396.52,166.85 394.06,168.95 392.07,169.96 C385.36,173.39 376.00,181.15 371.43,187.09 C363.32,197.63 359.65,209.00 361.38,218.23 C362.06,221.83 367.37,231.00 368.78,231.00 C369.23,231.00 371.47,229.63 373.75,227.95 ZM 476.49 253.47 C465.58,257.03 451.36,257.10 444.81,253.61 C433.19,247.44 427.44,242.13 428.18,238.28 C428.65,235.84 434.03,232.50 441.80,229.81 C446.96,228.03 450.45,227.53 457.00,227.63 C469.15,227.83 478.19,231.79 488.10,241.27 C491.46,244.48 492.49,244.83 503.88,246.56 C515.86,248.39 519.04,249.29 517.83,250.50 C517.50,250.84 510.68,250.60 502.69,249.98 C492.52,249.19 487.56,249.16 486.20,249.90 C485.12,250.47 480.75,252.08 476.49,253.47 ZM 430.55 284.54 C433.28,283.73 438.44,281.31 442.01,279.17 C445.58,277.03 450.19,274.73 452.25,274.06 C455.59,272.98 457.44,271.00 455.11,271.00 C454.62,271.00 451.85,269.37 448.95,267.37 C440.20,261.35 435.96,259.94 424.71,259.30 C416.88,258.86 413.16,259.10 408.98,260.33 C402.99,262.08 388.00,272.22 388.00,274.53 C388.00,277.40 396.68,283.70 404.00,286.13 C407.56,287.32 424.65,286.29 430.55,284.54 ZM 488.28 175.41 C473.70,182.69 471.00,181.98 471.00,170.83 C471.00,165.57 471.59,163.14 474.06,158.20 C475.74,154.83 478.55,150.86 480.31,149.37 C485.54,144.94 503.71,136.73 509.43,136.22 C513.24,135.87 516.51,134.54 522.59,130.84 C527.04,128.14 532.40,125.65 534.50,125.31 C539.82,124.44 538.49,126.05 529.70,131.12 C519.88,136.78 518.39,138.34 516.00,145.39 C513.17,153.74 512.46,154.83 504.81,162.66 C496.20,171.47 496.26,171.43 488.28,175.41 ZM 429.08 196.88 C438.40,191.91 450.76,177.66 455.46,166.45 C456.38,164.28 458.01,158.69 459.10,154.03 C460.19,149.38 461.63,145.22 462.29,144.80 C463.10,144.29 463.13,144.03 462.38,144.02 C461.77,144.01 460.20,144.83 458.88,145.85 C457.57,146.87 454.20,148.46 451.38,149.39 C434.18,155.05 418.63,170.50 417.32,183.23 C416.63,189.92 419.22,200.00 421.64,200.00 C422.51,200.00 425.86,198.60 429.08,196.88 ZM 477.50 251.97 C480.80,250.76 485.08,249.18 487.00,248.48 C488.92,247.77 490.38,246.81 490.24,246.34 C490.10,245.88 488.23,243.70 486.09,241.50 C476.62,231.77 461.32,226.51 449.57,228.93 C442.28,230.43 431.54,234.65 429.87,236.66 C427.57,239.43 431.37,244.23 439.82,249.25 C444.05,251.75 448.17,254.07 449.00,254.39 C452.53,255.77 471.53,254.16 477.50,251.97 ZM 543.51 169.55 C538.69,171.90 534.41,173.17 529.80,173.62 C523.15,174.26 523.10,174.25 522.43,171.57 C521.24,166.82 522.62,160.00 525.67,155.67 C532.10,146.51 542.89,141.18 557.50,139.95 C562.45,139.53 569.20,138.29 572.50,137.20 C578.20,135.31 580.00,135.22 580.00,136.83 C580.00,137.22 577.92,138.66 575.38,140.02 C572.03,141.82 569.68,144.21 566.80,148.74 C561.60,156.92 552.23,165.30 543.51,169.55 ZM 487.33 174.85 C499.97,168.48 509.61,158.16 514.58,145.66 C516.45,140.94 517.41,137.25 516.86,136.91 C513.63,134.91 495.79,140.87 485.72,147.32 C475.23,154.03 469.82,166.26 472.66,176.85 C473.22,178.97 473.68,179.15 477.22,178.58 C479.38,178.24 483.93,176.55 487.33,174.85 ZM 589.52 233.02 C590.95,235.34 582.08,232.70 573.37,228.21 C569.78,226.36 567.76,226.11 557.82,226.29 C546.45,226.50 546.37,226.48 538.77,222.73 C531.12,218.95 527.15,215.16 523.64,208.30 C521.20,203.53 521.59,202.07 525.75,200.33 C537.41,195.46 559.08,204.38 567.00,217.31 C570.21,222.56 571.25,223.39 579.71,227.54 C584.77,230.02 589.18,232.49 589.52,233.02 ZM 585.87 174.55 C578.50,176.51 569.62,176.45 567.94,174.43 C566.86,173.12 566.96,171.89 568.56,167.18 C571.04,159.89 574.45,156.08 581.67,152.55 C587.08,149.90 588.64,149.65 604.49,148.93 C613.85,148.50 624.44,147.65 628.04,147.03 C632.24,146.31 635.46,146.24 637.04,146.84 C639.37,147.72 639.28,147.81 635.50,148.48 C621.51,150.96 615.47,152.94 613.50,155.70 C607.19,164.53 596.75,171.65 585.87,174.55 ZM 443.45 606.10 C442.38,606.52 440.83,606.88 440.00,606.91 C438.25,606.97 430.25,597.61 420.01,583.50 C413.02,573.88 402.55,554.54 403.49,553.01 C404.20,551.87 415.64,557.67 420.85,561.80 C433.55,571.89 443.86,581.33 444.34,583.30 C444.63,584.51 444.99,589.96 445.13,595.42 C445.38,604.46 445.23,605.40 443.45,606.10 ZM 541.47 168.94 C550.21,165.31 560.01,156.95 565.34,148.62 C567.48,145.25 569.94,141.94 570.80,141.26 C573.14,139.39 571.52,138.62 567.90,139.88 C566.14,140.50 561.89,141.00 558.46,141.00 C544.87,141.00 530.65,148.38 525.75,157.98 C523.09,163.18 522.05,170.71 523.75,172.42 C525.07,173.76 534.23,171.96 541.47,168.94 ZM 567.39 224.41 C568.72,223.89 568.60,223.15 566.51,219.02 C563.50,213.07 557.48,207.83 549.00,203.74 C543.39,201.03 541.38,200.60 534.29,200.55 C527.94,200.51 525.71,200.87 524.42,202.15 C522.88,203.69 522.92,204.12 525.03,208.35 C528.20,214.69 533.51,219.52 540.52,222.43 C545.44,224.48 548.21,224.92 556.17,224.96 C561.49,224.98 566.53,224.73 567.39,224.41 ZM 590.20 172.04 C593.33,170.86 598.39,167.95 601.45,165.58 C606.80,161.43 613.00,154.62 613.00,152.90 C613.00,150.62 608.20,149.75 598.29,150.26 C586.40,150.87 579.34,153.57 574.11,159.53 C571.01,163.05 567.54,172.44 568.66,174.26 C569.66,175.88 583.89,174.42 590.20,172.04 ZM 614.00 223.10 C614.00,224.48 611.98,223.97 606.50,221.20 C602.84,219.35 599.09,218.48 592.50,217.96 C578.30,216.82 567.47,210.62 565.07,202.24 C563.86,198.03 565.09,197.18 573.57,196.43 C579.82,195.88 580.99,196.08 585.50,198.50 C593.36,202.71 596.57,205.56 598.78,210.25 C601.34,215.70 604.19,218.17 611.25,221.07 C612.76,221.69 614.00,222.60 614.00,223.10 ZM 444.33 554.75 C443.98,560.39 443.35,565.00 442.92,565.00 C442.49,565.00 441.55,564.41 440.82,563.70 C440.09,562.98 436.80,560.50 433.50,558.19 C430.20,555.88 424.80,552.10 421.50,549.78 C418.20,547.47 412.61,543.98 409.07,542.04 C401.67,537.96 400.32,536.07 405.21,536.63 C413.59,537.60 431.06,540.14 436.24,541.15 C440.23,541.93 442.42,542.35 443.55,543.68 C444.92,545.28 444.74,548.22 444.34,554.72 ZM 257.42 433.79 C258.67,428.70 255.68,403.87 252.76,395.20 C249.01,384.08 240.45,369.82 232.17,360.90 C228.25,356.68 226.03,354.19 224.77,350.94 L 232.33 359.08 C240.21,367.55 249.21,381.79 253.01,391.78 C257.62,403.93 260.53,429.83 258.02,436.43 C257.16,438.70 256.50,438.99 252.27,438.96 C246.18,438.90 241.03,437.05 234.61,432.60 C221.82,423.74 216.76,410.97 216.75,387.50 C216.75,380.38 217.41,372.26 218.37,367.54 C219.58,361.59 219.83,356.79 219.37,348.54 C218.37,330.50 222.02,300.00 225.19,300.00 C225.75,300.00 225.80,302.87 225.31,307.25 C224.86,311.24 224.50,322.63 224.50,332.58 L 224.50 350.19 C223.19,346.25 223.11,341.03 223.06,330.58 C223.03,323.48 222.69,317.97 222.32,318.35 C220.95,319.72 220.09,341.57 221.08,349.83 C221.90,356.67 221.79,359.26 220.45,364.33 C218.39,372.13 217.43,394.46 218.78,403.00 C220.29,412.47 223.50,420.15 228.20,425.49 C235.24,433.49 244.46,438.12 252.50,437.71 C256.22,437.51 256.56,437.24 257.42,433.79 ZM 597.86 216.11 C599.56,215.03 598.62,211.64 595.42,207.37 C592.88,203.97 585.67,199.34 580.71,197.92 C576.43,196.69 566.97,197.91 566.25,199.78 C565.37,202.08 569.08,208.03 573.04,210.65 C580.66,215.69 593.92,218.61 597.86,216.11 ZM 521.02 232.70 C522.35,231.77 524.69,231.00 526.22,231.00 C527.75,231.00 529.00,230.51 529.00,229.91 C529.00,227.54 516.48,215.89 511.10,213.26 C506.40,210.96 503.93,210.47 495.40,210.16 C486.79,209.84 484.58,210.09 480.56,211.87 C476.44,213.69 475.94,214.24 476.57,216.21 C478.51,222.33 486.21,229.05 495.29,232.54 C500.40,234.51 503.02,234.88 510.04,234.67 C512.31,234.60 514.18,234.47 515.71,234.29 C506.31,235.61 496.14,234.61 490.18,231.59 C485.05,228.99 476.68,220.71 475.53,217.10 C473.91,211.99 480.50,209.01 493.43,209.01 C505.32,209.00 511.62,211.15 519.77,218.01 C523.54,221.19 527.34,224.86 528.20,226.18 C529.33,227.91 532.61,229.53 539.89,231.96 C545.45,233.82 550.00,235.71 550.00,236.17 C550.00,237.74 537.21,235.76 531.73,233.34 C528.20,231.78 527.48,231.79 520.04,233.49 C519.25,233.67 518.45,233.83 517.65,233.98 C519.15,233.67 520.23,233.25 521.02,232.70 ZM 489.03 535.25 C488.49,536.76 487.48,537.97 486.77,537.93 C485.56,537.86 476.95,534.29 476.21,533.54 C476.01,533.35 476.57,531.80 477.44,530.11 C479.37,526.38 483.67,524.00 488.48,524.00 C492.80,524.00 493.79,525.81 491.59,529.70 C490.72,531.24 489.57,533.74 489.03,535.25 ZM 207.09 422.17 C204.74,418.24 202.51,412.25 201.06,405.53 C199.88,400.11 198.51,394.97 197.99,394.09 C195.42,389.70 198.38,411.60 201.49,420.00 C201.79,420.80 202.07,421.92 202.34,423.32 C202.01,422.23 201.62,421.33 201.13,420.41 C198.25,414.97 196.05,402.33 195.31,386.90 C194.89,378.11 195.05,374.09 195.83,373.61 C197.12,372.81 197.41,374.03 198.90,386.50 C200.33,398.36 204.68,417.45 206.99,421.99 C207.03,422.05 207.06,422.11 207.09,422.17 ZM 426.81 522.25 C427.10,523.76 426.36,523.98 421.32,523.89 C415.17,523.76 408.38,522.71 407.39,521.72 C406.37,520.70 413.22,519.87 419.99,520.19 C425.23,520.44 426.54,520.84 426.81,522.25 ZM 486.42 271.39 C485.55,271.73 483.47,272.00 481.80,272.00 C479.21,272.00 478.94,271.78 480.00,270.50 C480.68,269.67 482.76,269.00 484.62,269.00 C488.14,269.00 489.15,270.34 486.42,271.39 ZM 595.29 133.02 C593.21,133.45 589.92,134.07 588.00,134.41 L 584.50 135.02 L 587.81 133.48 C591.39,131.82 600.95,130.23 599.79,131.49 C599.40,131.91 597.37,132.60 595.29,133.02 ZM 405.74 338.00 C405.88,338.00 406.00,337.55 406.00,337.00 C406.00,335.37 403.39,335.86 400.86,337.97 L 398.50 339.93 L 401.99 338.97 C403.91,338.43 405.60,338.00 405.74,338.00 ZM 328.31 773.99 C327.84,772.65 327.42,771.62 327.13,771.06 C325.50,768.01 324.22,769.16 322.53,775.18 C321.89,777.46 320.86,780.91 319.85,784.15 C321.16,779.89 322.30,775.70 322.57,774.08 C323.90,766.17 325.01,765.03 326.80,769.75 C327.27,770.99 327.78,772.43 328.31,773.99 ZM 520.77 553.19 C520.15,555.04 518.00,555.35 518.00,553.58 C518.00,552.71 518.71,552.00 519.58,552.00 C520.45,552.00 520.99,552.53 520.77,553.19 ZM 213.18 481.61 C209.98,475.14 207.68,467.83 206.15,459.15 C207.71,467.87 210.01,475.20 213.18,481.61 ZM 224.79 437.45 C231.90,444.13 239.51,452.36 243.24,457.87 C239.53,452.39 231.90,444.14 224.79,437.45 ZM 319.23 786.12 C319.01,786.82 318.80,787.49 318.59,788.12 C318.72,787.72 318.84,787.32 318.98,786.91 C319.06,786.65 319.15,786.39 319.23,786.12 ZM 210.45 426.23 C210.07,425.95 209.68,425.61 209.29,425.19 C209.69,425.60 210.08,425.96 210.45,426.23 Z" fill="rgb(143,163,30)"/>
<path d="M 443.45 606.10 C445.23,605.40 445.38,604.46 445.13,595.42 C444.99,589.96 444.63,584.51 444.34,583.30 C443.86,581.33 433.55,571.89 420.85,561.80 C415.64,557.67 404.20,551.87 403.49,553.01 C402.79,554.15 408.38,565.09 414.16,574.59 C411.69,570.66 409.43,566.77 407.39,562.95 C403.88,556.34 401.00,550.50 401.00,549.97 C401.00,548.33 402.53,548.85 409.18,552.75 C418.59,558.27 425.48,563.48 434.90,572.21 C445.45,582.00 447.30,582.23 446.35,573.60 C445.89,569.39 446.05,569.56 432.25,558.75 C427.16,554.76 420.91,549.86 418.36,547.85 C417.71,547.34 417.01,546.83 416.31,546.36 C418.24,547.57 420.08,548.79 421.50,549.78 C424.80,552.10 430.20,555.88 433.50,558.19 C436.80,560.50 440.09,562.98 440.82,563.70 C441.55,564.41 442.49,565.00 442.92,565.00 C443.35,565.00 443.98,560.39 444.33,554.75 L 444.34 554.72 C444.74,548.22 444.92,545.28 443.55,543.68 C442.42,542.35 440.23,541.93 436.24,541.15 C431.06,540.14 413.59,537.60 405.21,536.63 C400.32,536.07 401.67,537.96 409.07,542.04 C410.52,542.83 412.30,543.88 414.14,545.00 C412.90,544.30 411.80,543.80 411.11,543.66 C407.43,542.89 398.77,537.18 399.51,535.99 C400.43,534.49 404.19,534.79 419.50,537.56 C427.20,538.95 435.89,540.48 438.80,540.97 C441.72,541.45 444.77,542.39 445.58,543.06 C446.39,543.74 447.21,544.11 447.41,543.89 C448.30,542.94 449.13,527.00 448.30,527.00 C447.79,527.00 446.51,527.66 445.44,528.47 C441.89,531.15 438.40,530.33 434.04,525.80 C430.45,522.07 429.87,521.79 428.75,523.23 C427.70,524.60 426.59,524.71 417.42,523.69 C418.71,523.79 420.03,523.86 421.32,523.89 C426.36,523.98 427.10,523.76 426.81,522.25 C426.54,520.84 425.23,520.44 419.99,520.19 C413.22,519.87 406.37,520.70 407.39,521.72 C407.88,522.21 409.79,522.72 412.35,523.12 C406.14,522.41 399.50,521.66 396.72,521.35 C393.54,521.00 390.67,520.28 390.34,519.74 C389.09,517.72 388.29,512.15 389.07,510.89 C390.03,509.34 400.41,506.70 415.12,504.28 L 425.74 502.53 L 426.62 496.09 C427.11,492.55 428.03,489.48 428.67,489.27 C429.32,489.06 432.32,491.12 435.33,493.85 C440.69,498.70 440.93,498.80 446.56,498.55 C452.86,498.27 454.94,496.68 455.07,492.06 C455.11,490.65 456.18,485.45 457.45,480.50 C459.99,470.57 459.55,468.74 454.81,469.68 L 452.12 470.21 L 453.28 490.65 L 450.34 493.95 C447.85,496.74 446.93,497.14 444.42,496.59 C438.88,495.38 434.02,486.62 434.01,477.83 C434.00,472.01 433.25,470.80 430.66,472.43 C428.84,473.57 408.87,477.15 390.59,479.61 L 385.69 480.27 L 386.30 466.89 C387.10,449.09 390.15,433.46 395.03,422.14 L 397.34 416.78 L 401.42 417.32 C426.01,420.59 451.28,425.73 454.51,428.10 C455.06,428.51 457.06,428.53 458.94,428.15 L 462.37 427.45 L 462.11 421.13 C461.90,416.04 462.35,413.81 464.42,409.57 C467.66,402.95 470.42,400.27 472.35,401.87 C473.80,403.08 476.00,412.32 476.00,417.21 C476.00,419.40 476.42,420.02 477.75,419.79 C479.62,419.48 479.77,421.21 478.43,427.75 C478.00,429.87 478.16,431.00 478.89,431.00 C479.50,431.00 480.00,429.49 480.00,427.63 C480.00,425.78 480.90,423.13 482.00,421.73 C483.10,420.33 484.00,418.66 484.00,418.03 C484.00,417.39 486.76,414.24 490.12,411.04 C495.55,405.87 496.02,405.14 494.22,404.57 C493.10,404.21 491.92,403.24 491.60,402.40 C490.92,400.62 493.51,395.17 496.06,393.00 C497.04,392.17 498.77,390.72 499.92,389.76 C501.94,388.07 502.83,384.00 501.18,384.00 C500.73,384.00 499.36,385.15 498.13,386.56 C494.92,390.25 491.75,389.52 490.59,384.83 C490.00,382.42 488.98,380.97 487.64,380.61 C486.51,380.32 485.43,380.23 485.25,380.42 C485.06,380.61 485.45,383.72 486.12,387.33 C487.30,393.74 487.26,394.01 484.65,397.95 C483.18,400.18 481.57,402.00 481.07,402.00 C480.58,402.00 478.92,400.68 477.40,399.06 C475.26,396.80 474.23,396.34 472.88,397.06 C471.92,397.58 470.09,397.99 468.82,397.97 C466.77,397.95 443.56,392.41 435.50,390.02 C433.85,389.53 429.58,388.42 426.00,387.54 C416.83,385.29 413.00,383.97 413.00,383.05 C413.00,382.61 416.31,377.58 420.37,371.88 C428.71,360.13 437.92,349.80 445.79,343.39 C448.06,341.54 449.29,340.32 450.73,340.00 C452.96,339.50 455.70,341.22 463.66,346.23 C464.59,346.82 465.60,347.45 466.69,348.13 C484.61,359.35 496.15,367.22 496.67,368.58 C496.95,369.32 498.02,370.19 499.04,370.51 C500.06,370.84 501.18,371.98 501.52,373.05 C501.95,374.43 503.04,375.00 505.23,375.00 C508.50,375.00 509.96,375.83 532.50,390.49 C540.20,395.50 549.42,401.35 553.00,403.48 C556.58,405.61 562.20,409.23 565.50,411.52 C568.80,413.82 572.17,416.00 573.00,416.37 C573.83,416.74 577.40,418.77 580.95,420.87 C587.33,424.65 590.03,427.30 588.79,428.55 C588.43,428.90 582.37,427.62 575.32,425.69 C568.27,423.76 558.90,421.43 554.50,420.50 C550.10,419.57 541.78,417.48 536.00,415.85 C519.74,411.29 511.81,409.19 508.00,408.46 C506.08,408.09 503.59,406.95 502.48,405.94 C500.10,403.75 496.52,404.92 498.76,407.16 C501.87,410.27 498.58,422.33 492.93,428.46 C490.77,430.80 489.00,432.99 489.00,433.33 C489.00,433.66 489.96,434.44 491.13,435.07 C492.76,435.94 493.44,435.91 494.04,434.93 C494.68,433.91 497.15,433.98 506.67,435.33 C513.17,436.25 519.62,437.00 521.00,437.01 C522.38,437.01 524.72,437.65 526.20,438.42 C528.80,439.78 528.98,439.70 530.96,436.34 C533.71,431.69 536.22,432.19 537.36,437.64 L 538.23 441.75 L 545.37 442.40 C557.77,443.54 580.35,447.54 580.72,448.66 C580.92,449.25 579.17,450.02 576.79,450.38 C546.05,454.99 544.98,455.24 544.35,457.93 C542.90,464.26 538.82,466.90 535.92,463.41 C534.63,461.85 535.05,459.87 538.78,450.14 C539.18,449.09 538.59,448.93 536.21,449.45 C534.48,449.83 532.21,449.65 531.06,449.03 C529.12,447.99 529.00,448.20 529.00,452.53 C529.00,460.21 526.01,463.13 521.92,459.43 C520.36,458.01 519.88,458.01 517.25,459.37 C512.52,461.82 501.60,463.39 499.01,462.01 C497.81,461.36 496.72,460.99 496.59,461.17 C496.46,461.35 495.85,464.32 495.23,467.76 C493.96,474.89 488.96,485.75 485.40,489.09 C482.28,492.02 482.33,494.00 485.52,494.00 C487.53,494.00 488.17,493.38 488.65,491.00 C488.98,489.35 489.42,488.00 489.63,488.00 C489.84,488.00 494.37,486.84 499.69,485.42 C505.97,483.75 510.54,483.07 512.69,483.47 L 516.00 484.09 L 516.00 477.19 C516.00,467.68 518.52,460.50 521.47,461.63 C522.79,462.13 528.00,472.73 528.00,474.92 C528.00,475.56 528.56,476.00 529.25,475.89 C529.94,475.78 531.29,476.03 532.26,476.45 C533.60,477.04 534.96,476.18 537.83,472.94 C542.14,468.09 544.99,468.00 545.02,472.72 C545.04,476.89 546.34,478.49 548.05,476.44 C549.95,474.14 552.78,473.21 566.18,470.43 C572.61,469.09 579.05,467.55 580.50,467.00 C583.86,465.72 588.00,465.71 588.00,466.98 C588.00,467.52 586.09,468.93 583.75,470.12 C581.41,471.31 577.03,473.91 574.00,475.90 C570.97,477.88 565.58,481.04 562.00,482.91 C558.42,484.78 553.20,487.81 550.40,489.65 C547.59,491.49 544.91,493.00 544.45,493.00 C543.99,493.00 541.89,494.19 539.78,495.65 C537.64,497.14 534.68,498.27 533.05,498.22 C530.67,498.15 529.95,498.70 529.07,501.22 C527.78,504.94 527.66,511.00 528.89,511.00 C529.37,511.00 530.56,509.80 531.52,508.32 C534.75,503.40 542.78,497.01 545.75,497.00 C547.82,497.00 547.32,507.45 545.04,511.92 C539.89,522.01 532.24,524.98 528.85,518.19 C527.94,516.37 526.91,515.34 526.56,515.90 C525.02,518.39 520.00,537.44 520.00,540.78 C520.00,541.69 521.91,539.52 524.25,535.97 C528.03,530.22 529.33,529.09 536.00,525.81 C540.12,523.79 544.71,522.10 546.18,522.06 C548.34,522.01 548.93,521.46 549.18,519.29 C549.40,517.47 550.86,515.59 553.68,513.54 C555.97,511.87 561.77,507.58 566.56,504.00 C577.18,496.08 596.22,483.07 597.25,483.03 C597.66,483.01 598.00,483.46 598.00,484.02 C598.00,485.09 590.69,495.48 582.80,505.60 C578.15,511.58 566.00,529.60 566.00,530.53 C566.00,531.37 572.06,530.39 578.36,528.90 C574.19,530.06 569.12,531.60 565.00,532.98 C558.67,535.10 551.61,537.33 549.30,537.94 C546.02,538.81 544.45,540.03 542.05,543.57 C540.37,546.06 539.00,548.25 539.00,548.43 C539.00,548.62 539.94,549.01 541.09,549.31 C542.89,549.78 543.09,550.34 542.48,553.18 C540.28,563.48 530.70,576.14 522.51,579.56 C518.07,581.41 515.63,581.38 511.80,579.40 C511.61,579.30 511.43,579.20 511.25,579.11 C510.39,578.65 509.77,578.32 509.21,578.39 C507.76,578.56 506.63,581.32 502.25,590.97 C498.69,598.81 497.80,602.10 499.24,602.84 C498.68,602.84 498.19,602.81 497.75,602.75 C496.22,602.53 494.57,602.83 494.10,603.42 C492.29,605.68 487.77,615.10 488.26,615.59 C488.54,615.88 494.79,615.65 502.14,615.09 C519.68,613.77 532.40,610.03 548.50,601.49 C562.46,594.08 563.80,593.14 575.47,582.50 C595.85,563.93 617.99,550.36 642.14,541.63 C647.29,539.77 655.78,536.68 661.00,534.76 C666.22,532.85 674.78,530.50 680.00,529.55 C685.22,528.59 695.17,526.75 702.10,525.44 C718.50,522.35 734.46,521.13 733.82,523.03 C733.58,523.77 732.28,524.70 730.94,525.09 C706.66,532.20 698.81,535.37 679.83,545.75 C656.01,558.77 645.20,567.00 627.78,585.37 C612.70,601.27 606.90,605.60 588.10,614.98 C569.54,624.25 566.10,625.55 549.50,629.54 C524.68,635.50 506.04,636.56 489.06,632.98 C482.95,631.69 479.27,631.33 478.65,631.95 C477.43,633.17 481.17,634.66 489.98,636.46 C495.75,637.64 501.44,638.50 507.08,639.04 C502.97,638.74 499.18,638.28 496.00,637.66 C480.52,634.67 478.88,634.52 479.51,636.16 C479.84,637.01 482.45,638.67 486.39,640.67 C481.74,638.44 478.36,636.53 477.52,635.49 C476.96,634.80 475.36,633.98 473.96,633.65 C472.56,633.33 470.54,632.13 469.46,630.98 C464.02,625.17 462.55,624.00 460.75,624.00 C458.84,624.00 451.71,619.04 449.28,616.02 C448.61,615.18 448.05,612.81 448.03,610.75 L 448.00 607.00 L 443.25 606.98 C442.15,606.98 441.29,606.96 440.55,606.86 C441.41,606.74 442.59,606.43 443.45,606.10 ZM 600.00 410.95 C600.00,413.29 596.12,411.56 589.32,406.18 C585.37,403.06 578.40,397.82 573.82,394.54 C569.24,391.26 563.25,386.74 560.50,384.49 C557.75,382.24 549.88,376.41 543.00,371.53 C536.12,366.65 528.47,361.01 526.00,359.00 C523.53,356.99 512.72,348.95 502.00,341.15 C491.27,333.35 481.15,325.86 479.50,324.52 L 476.50 322.08 L 479.00 320.09 C484.51,315.69 511.15,304.80 519.75,303.42 L 523.64 302.80 L 531.74 314.15 C536.19,320.39 542.91,329.66 546.67,334.75 C550.43,339.83 554.98,346.13 556.80,348.75 C558.61,351.36 564.23,359.36 569.30,366.53 C574.36,373.70 580.11,382.02 582.08,385.03 C587.63,393.51 588.13,394.22 594.25,402.30 C597.41,406.48 600.00,410.37 600.00,410.95 ZM 645.57 473.62 C639.71,476.35 630.82,476.74 624.66,474.54 C618.95,472.51 611.82,466.05 609.14,460.49 C602.17,446.06 607.36,429.01 620.97,421.61 C625.54,419.13 627.43,418.71 634.39,418.64 C643.49,418.56 647.15,419.87 653.81,425.57 C660.11,430.96 662.48,436.83 662.49,447.07 C662.50,454.20 662.09,456.43 660.06,460.38 C657.11,466.12 652.36,470.46 645.57,473.62 ZM 613.95 388.82 C615.69,395.60 616.98,401.82 616.81,402.66 C616.32,405.05 612.97,400.73 607.78,391.00 C605.28,386.33 600.96,378.90 598.18,374.50 C595.40,370.10 590.39,361.77 587.05,356.00 C583.70,350.23 579.51,343.16 577.73,340.30 C575.96,337.44 572.52,331.82 570.09,327.80 C567.67,323.79 562.79,315.87 559.26,310.21 C559.07,309.91 558.89,309.62 558.72,309.34 C555.05,303.48 553.07,300.30 553.95,298.65 C554.99,296.68 560.05,296.86 571.12,297.24 C571.57,297.26 572.03,297.27 572.50,297.29 C581.86,297.61 590.27,298.17 591.21,298.53 C593.21,299.29 594.30,302.48 596.50,314.00 C597.40,318.67 599.62,328.35 601.44,335.50 C603.27,342.65 605.48,351.88 606.35,356.00 C609.90,372.64 610.91,377.01 613.95,388.82 ZM 480.10 604.41 C482.61,602.14 497.00,574.67 497.00,572.16 C497.00,570.68 496.38,570.00 495.05,570.00 C493.88,570.00 491.37,567.82 488.80,564.58 C485.35,560.23 482.44,558.05 474.07,553.54 C468.34,550.45 462.94,548.06 462.07,548.22 C461.03,548.42 460.39,549.85 460.18,552.50 C460.00,554.68 459.47,556.93 459.01,557.49 C458.55,558.05 458.61,563.90 459.15,570.50 C459.69,577.10 460.16,584.08 460.19,586.00 C460.31,592.85 462.31,605.51 463.40,606.30 C465.18,607.60 478.20,606.13 480.10,604.41 ZM 636.39 393.77 C635.30,402.56 633.41,401.89 632.46,392.39 C632.13,389.15 631.44,384.48 630.92,382.00 C629.85,376.93 625.89,351.30 623.03,331.00 C621.98,323.58 620.60,315.08 619.95,312.13 C619.03,307.90 619.05,306.59 620.02,305.98 C621.34,305.17 625.34,306.04 628.78,307.88 C629.92,308.49 634.14,310.16 638.17,311.59 C642.20,313.03 646.10,314.77 646.84,315.48 C648.25,316.82 647.51,322.70 639.99,370.00 C638.37,380.17 636.75,390.87 636.39,393.77 ZM 697.85 439.33 L 700.14 444.17 L 708.82 443.50 C713.59,443.13 719.08,442.43 721.00,441.92 C722.92,441.42 728.64,440.72 733.69,440.36 C734.75,440.29 735.69,440.21 736.52,440.14 C739.59,439.87 741.23,439.73 742.23,440.46 C743.65,441.50 743.78,444.29 744.89,450.98 C746.40,460.07 746.18,460.19 732.00,457.94 C725.67,456.94 718.99,456.09 717.14,456.06 C713.95,456.00 713.82,456.14 714.54,458.75 C714.95,460.26 715.56,464.65 715.89,468.50 L 716.50 475.50 L 730.76 479.06 C738.60,481.01 745.45,483.05 745.98,483.58 C746.61,484.21 746.60,487.92 745.95,494.02 C744.70,505.96 744.24,508.00 742.81,508.00 C741.69,508.00 722.88,496.43 718.12,492.81 C716.80,491.82 715.00,491.01 714.12,491.01 C713.13,491.02 710.31,493.62 707.76,496.47 C712.43,490.52 715.00,481.01 715.00,469.50 C715.00,463.79 714.56,458.85 714.03,458.52 C713.49,458.19 712.56,456.08 711.96,453.84 C710.56,448.66 706.95,445.00 703.25,445.00 C699.85,445.00 698.00,443.39 698.00,440.43 C698.00,440.09 697.95,439.72 697.85,439.33 ZM 657.93 396.91 C655.27,399.96 654.00,400.72 654.00,399.25 C654.00,396.53 657.59,382.24 660.42,373.68 C662.27,368.08 664.54,360.35 665.45,356.50 C666.37,352.65 667.71,347.48 668.44,345.00 C669.17,342.52 670.28,338.59 670.92,336.25 C671.63,333.63 672.66,332.00 673.59,332.00 C675.44,332.00 688.70,342.58 690.08,345.15 C691.22,347.28 690.17,349.22 678.71,366.18 C674.75,372.06 669.05,380.68 666.07,385.34 C663.08,390.00 659.42,395.21 657.93,396.91 ZM 684.63 404.04 C678.11,408.42 672.37,412.00 671.88,412.00 C669.41,412.00 672.58,406.58 681.82,395.00 C683.36,393.08 689.05,385.65 694.45,378.50 C703.58,366.44 705.69,364.00 707.00,364.05 C708.35,364.10 718.10,378.25 717.81,379.75 C717.48,381.44 708.19,388.25 684.63,404.04 ZM 678.17 440.39 C678.48,439.57 678.79,438.80 679.12,438.09 C681.84,432.08 681.95,431.43 680.42,430.32 C678.95,429.25 679.33,428.76 683.53,426.30 C686.15,424.76 690.60,421.99 693.40,420.14 C696.21,418.30 701.88,414.94 706.00,412.67 C710.12,410.41 716.63,406.63 720.45,404.28 C724.28,401.93 727.80,400.00 728.27,400.00 C729.51,400.00 736.18,414.82 735.81,416.74 C735.58,417.92 732.56,418.98 724.50,420.72 C718.45,422.02 710.58,423.73 707.00,424.53 C703.42,425.32 698.85,425.97 696.83,425.98 C689.83,426.02 687.88,428.38 692.41,431.35 C693.34,431.96 694.75,433.75 696.01,435.83 C694.68,434.09 692.82,432.44 690.85,431.42 C688.13,430.01 687.61,430.04 684.69,431.70 C682.49,432.96 680.01,436.43 678.17,440.39 ZM 483.96 557.68 C487.02,560.44 488.00,559.24 488.01,552.75 C488.02,549.31 488.28,544.92 488.59,543.00 L 488.60 542.97 C488.79,541.76 488.93,540.93 488.67,540.25 C488.10,538.73 485.59,537.94 477.52,535.39 C474.23,534.35 470.75,532.71 469.77,531.75 C468.80,530.79 467.13,530.00 466.08,530.00 C465.02,530.00 462.80,528.86 461.15,527.47 C457.55,524.44 457.25,524.97 456.92,535.00 C456.54,546.30 456.69,547.00 459.49,547.00 C462.15,547.00 481.50,555.44 483.96,557.68 ZM 694.25 500.85 C699.18,504.30 699.87,504.50 700.60,502.61 C701.10,501.30 696.13,495.62 693.09,493.36 C694.03,494.04 695.17,495.07 696.51,496.46 L 701.04 501.12 L 700.39 507.48 C699.68,514.46 699.10,514.97 693.00,514.04 C689.56,513.51 689.49,513.41 689.20,508.22 C688.82,501.65 687.00,502.28 687.00,508.98 L 687.00 513.85 L 673.75 513.90 C662.22,513.94 638.27,516.53 619.48,519.33 C623.95,518.54 629.08,517.26 629.77,516.56 C630.03,516.30 630.61,512.47 631.05,508.05 C631.96,499.06 632.71,496.00 634.02,496.00 C634.98,496.00 635.66,499.08 636.79,508.50 L 637.50 514.50 L 645.01 514.79 C655.51,515.19 656.33,514.44 654.49,506.00 C652.86,498.52 652.60,493.64 653.89,494.43 C654.38,494.73 657.13,498.92 660.01,503.74 C662.88,508.56 665.42,512.70 665.65,512.94 C666.30,513.65 680.23,514.02 683.25,513.40 C687.08,512.62 686.86,509.22 682.70,505.20 C679.66,502.25 677.71,501.48 675.27,502.55 C677.63,500.72 680.18,497.54 680.58,495.44 C681.82,488.82 686.00,488.38 686.00,494.87 C686.00,496.93 686.66,499.49 687.47,500.56 C688.83,502.35 688.94,502.14 688.97,497.72 C688.99,493.83 689.64,492.08 691.27,492.43 C691.17,492.43 691.09,492.45 691.02,492.49 C688.55,494.01 690.05,497.90 694.25,500.85 ZM 504.98 553.25 C505.01,559.34 507.24,558.01 510.42,550.00 C517.21,532.89 519.96,523.91 519.98,518.75 C520.00,516.54 519.55,516.00 517.69,516.00 C514.98,516.00 511.26,512.82 509.96,509.40 C509.10,507.13 506.00,505.96 506.00,507.90 C506.00,508.40 507.60,511.64 509.56,515.11 C512.57,520.43 513.12,522.36 513.12,527.53 C513.12,538.71 511.31,541.11 503.96,539.64 C500.46,538.94 500.38,539.41 502.98,545.14 C504.07,547.54 504.97,551.19 504.98,553.25 ZM 466.40 497.03 C470.97,499.07 474.00,499.48 474.00,498.07 C474.00,497.55 472.99,496.83 471.75,496.45 C468.04,495.32 466.00,492.88 466.02,489.60 C466.08,481.94 474.94,470.17 484.25,465.40 C486.86,464.06 489.00,462.52 489.00,461.98 C489.00,460.19 485.83,460.97 482.82,463.50 C479.00,466.71 472.63,466.98 470.77,464.00 C468.99,461.16 468.49,461.46 467.02,466.25 C466.30,468.59 465.07,472.52 464.29,474.98 C462.61,480.28 461.06,491.93 461.79,493.85 C462.06,494.60 464.14,496.03 466.40,497.03 ZM 583.89 527.47 C587.04,526.58 589.76,525.65 591.19,524.88 C593.85,523.45 601.67,512.55 608.80,500.35 C611.05,496.49 613.59,492.75 614.45,492.04 C615.77,490.94 616.00,491.08 616.00,493.01 C616.00,494.24 614.92,498.25 613.60,501.92 C612.28,505.58 610.88,511.14 610.48,514.29 L 609.77 520.00 L 613.84 520.00 C614.48,520.00 615.34,519.93 616.33,519.81 C605.27,521.53 596.49,523.27 594.00,524.51 C592.62,525.20 588.12,526.52 584.00,527.44 ZM 470.58 616.78 C472.98,618.13 474.09,617.58 476.70,613.73 L 476.80 613.58 C478.84,610.58 479.94,608.95 479.51,608.06 C479.00,607.00 476.30,607.00 470.36,607.00 L 470.11 607.00 C460.06,607.00 460.00,607.02 460.00,609.43 C460.00,610.77 460.43,613.00 460.95,614.38 C461.79,616.57 462.35,616.82 465.34,616.33 C467.23,616.03 469.59,616.23 470.58,616.78 ZM 489.03 535.25 C489.57,533.74 490.72,531.24 491.59,529.70 C493.79,525.81 492.80,524.00 488.48,524.00 C483.67,524.00 479.37,526.38 477.44,530.11 C476.57,531.80 476.01,533.35 476.21,533.54 C476.95,534.29 485.56,537.86 486.77,537.93 C487.48,537.97 488.49,536.76 489.03,535.25 ZM 520.75 555.34 C520.02,555.63 520.25,555.88 521.30,555.92 C523.50,556.02 529.41,553.07 528.61,552.28 C528.29,551.96 527.01,551.20 525.77,550.60 C524.52,549.99 522.83,548.04 522.00,546.27 C521.17,544.49 520.21,543.03 519.85,543.02 C519.20,543.00 516.75,549.13 517.25,549.53 C517.39,549.64 518.51,550.26 519.75,550.90 C522.20,552.18 522.74,554.54 520.75,555.34 ZM 703.10 504.03 C703.88,506.80 709.16,511.90 713.79,514.18 L 718.50 516.50 L 712.50 517.14 C711.43,517.26 710.09,517.37 708.64,517.47 C709.09,517.43 709.51,517.38 709.90,517.33 C714.73,516.75 715.10,516.55 713.45,515.34 C712.44,514.60 710.22,514.00 708.51,514.00 C704.19,514.00 703.00,512.40 703.00,506.59 C703.00,505.59 703.02,504.76 703.10,504.03 ZM 471.65 448.24 C472.35,449.37 472.73,449.21 474.96,446.81 C477.40,444.20 477.56,442.43 475.45,441.62 C474.36,441.20 473.49,442.00 472.54,444.25 C471.79,446.03 471.39,447.82 471.65,448.24 ZM 493.63 530.30 C495.14,531.80 497.00,529.49 496.98,526.14 C496.97,522.37 495.17,517.93 494.90,521.00 C494.83,521.83 494.85,523.27 494.94,524.21 C495.04,525.15 494.65,526.78 494.09,527.83 C493.53,528.88 493.32,529.99 493.63,530.30 ZM 446.18 461.90 C447.46,463.48 448.88,464.43 449.34,464.00 C450.30,463.11 447.41,457.00 446.03,457.00 C443.95,457.00 444.01,459.21 446.18,461.90 ZM 459.00 510.50 C459.00,513.30 461.42,513.95 462.40,511.41 C463.16,509.43 462.33,508.00 460.44,508.00 C459.57,508.00 459.00,508.99 459.00,510.50 ZM 448.00 512.08 C448.00,515.91 450.36,515.57 450.82,511.67 C451.04,509.78 450.68,509.00 449.57,509.00 C448.48,509.00 448.00,509.95 448.00,512.08 ZM 507.18 574.83 C506.84,577.14 507.64,577.51 509.90,576.09 C511.57,575.03 510.56,571.65 508.75,572.25 C508.06,572.47 507.36,573.63 507.18,574.83 ZM 514.00 559.04 C514.00,560.74 514.31,560.90 515.94,560.03 C519.06,558.36 519.34,557.00 516.56,557.00 C514.65,557.00 514.00,557.52 514.00,559.04 ZM 520.77 553.19 C520.99,552.53 520.45,552.00 519.58,552.00 C518.71,552.00 518.00,552.71 518.00,553.58 C518.00,555.35 520.15,555.04 520.77,553.19 ZM 500.00 568.00 C500.00,568.55 500.45,569.00 501.00,569.00 C501.55,569.00 502.00,568.55 502.00,568.00 C502.00,567.45 501.55,567.00 501.00,567.00 C500.45,567.00 500.00,567.45 500.00,568.00 ZM 556.48 635.17 C553.70,635.96 551.14,636.61 548.95,637.07 C545.85,637.72 542.24,638.24 538.35,638.63 C544.38,637.87 550.42,636.72 556.48,635.17 ZM 506.69 649.27 C515.51,652.46 522.69,654.65 529.91,656.13 C526.92,655.54 523.99,654.86 521.00,654.05 C517.09,653.01 512.01,651.27 506.69,649.27 ZM 672.40 462.24 C673.57,461.15 674.21,458.66 674.94,453.47 C674.74,454.93 674.54,456.37 674.39,457.51 C673.98,460.44 673.57,461.62 672.40,462.24 ZM 663.01 480.91 C663.11,476.53 663.76,473.95 665.80,469.59 C664.21,473.02 663.27,476.93 663.01,480.91 ZM 438.76 606.29 C437.32,605.50 435.89,603.83 432.90,600.23 C429.44,596.08 426.17,591.90 423.10,587.70 C430.33,597.43 436.10,604.26 438.76,606.29 ZM 509.00 601.00 C510.79,600.54 512.69,600.00 514.65,599.37 C510.16,600.85 506.12,601.93 502.93,602.46 C504.58,602.09 506.75,601.57 509.00,601.00 ZM 669.13 501.62 C667.67,500.22 666.42,498.21 665.44,495.80 C666.43,497.92 667.81,500.06 669.13,501.62 ZM 706.44 498.00 C705.21,499.47 704.16,500.90 703.55,501.97 C704.02,500.70 704.88,499.63 706.40,498.04 ZM 668.08 465.36 C669.00,463.92 669.80,462.99 670.21,462.98 C670.28,462.98 670.35,462.98 670.42,462.98 C669.63,463.40 668.88,464.16 668.08,465.36 ZM 694.73 518.19 C689.78,518.69 683.23,519.75 676.36,521.14 C683.41,519.71 690.07,518.62 694.73,518.19 Z" fill="rgb(243,180,29)"/>
<path d="M 0.00 512.00 L 0.00 0.00 L 512.00 0.00 L 1024.00 0.00 L 1024.00 512.00 L 1024.00 1024.00 L 512.00 1024.00 L 0.00 1024.00 L 0.00 512.00 ZM 411.97 855.42 C418.46,853.49 423.78,850.24 427.31,846.05 C432.27,840.15 432.78,836.08 433.13,799.89 L 433.45 766.50 L 425.22 766.21 C417.59,765.94 417.00,766.06 417.00,767.90 C417.00,770.41 415.38,771.47 414.31,769.66 C413.02,767.45 407.74,765.17 402.24,764.44 C390.29,762.85 378.01,771.28 374.46,783.50 C372.10,791.61 372.08,805.03 374.42,812.27 C379.73,828.71 398.01,836.91 410.48,828.45 C415.34,825.15 416.30,825.31 415.48,829.25 C412.88,841.68 402.10,845.99 390.03,839.42 L 384.78 836.56 L 380.92 841.03 C378.80,843.49 377.05,846.04 377.03,846.70 C376.98,848.52 384.98,853.63 390.55,855.34 C397.08,857.34 405.38,857.37 411.97,855.42 ZM 537.80 828.51 C544.76,824.72 549.25,819.61 551.97,812.38 C553.83,807.44 554.13,804.97 553.82,796.92 C553.49,788.57 553.03,786.50 550.21,780.78 C546.90,774.05 543.70,770.92 536.29,767.14 C532.87,765.40 530.31,765.00 522.70,765.00 C514.24,765.00 512.72,765.30 507.20,768.06 C496.24,773.54 491.94,781.19 491.25,796.50 C490.86,805.08 491.11,807.33 493.00,812.33 C498.06,825.71 508.57,832.28 524.00,831.72 C531.13,831.45 533.36,830.94 537.80,828.51 ZM 681.61 829.01 C684.85,827.37 687.58,826.02 687.68,826.01 C687.78,826.01 688.00,827.01 688.18,828.25 C688.48,830.37 688.97,830.50 696.50,830.50 L 704.50 830.50 L 705.05 808.00 C705.35,795.62 705.40,781.11 705.15,775.75 L 704.71 766.00 L 695.85 766.00 L 687.00 766.00 L 687.00 788.91 L 687.00 811.82 L 683.92 814.41 C679.63,818.03 672.00,818.09 668.45,814.55 L 666.00 812.09 L 666.00 789.05 L 666.00 766.00 L 656.42 766.00 L 646.85 766.00 L 647.19 790.75 C647.56,817.27 648.06,820.17 653.30,825.87 C659.52,832.63 671.78,834.00 681.61,829.01 ZM 762.21 830.02 C767.74,827.95 775.00,822.67 775.00,820.72 C775.00,819.21 767.91,812.00 766.43,812.00 C765.79,812.00 764.15,812.88 762.77,813.97 C759.27,816.72 752.35,818.09 747.49,817.00 C743.01,816.00 737.00,810.29 737.00,807.04 C737.00,805.12 737.78,805.03 757.25,804.77 L 777.50 804.50 L 777.82 798.50 C778.56,784.72 773.68,774.00 764.04,768.26 C758.90,765.18 758.05,765.00 749.04,765.02 C734.61,765.06 726.88,769.53 720.70,781.41 C717.74,787.11 717.54,788.17 717.54,798.00 C717.53,806.82 717.90,809.30 719.81,813.50 C722.35,819.04 727.95,825.35 732.42,827.69 C741.23,832.31 753.52,833.27 762.21,830.02 ZM 307.03 823.00 C308.42,818.88 309.91,814.94 310.34,814.25 C310.91,813.34 315.17,813.00 325.98,813.00 L 340.83 813.00 L 342.42 817.50 C343.29,819.97 344.71,824.03 345.58,826.50 L 347.17 831.00 L 356.58 831.00 C363.69,831.00 366.00,830.68 366.00,829.69 C366.00,827.84 361.23,814.26 354.00,795.50 C350.61,786.70 346.80,776.58 345.54,773.00 C342.72,765.02 336.14,748.04 335.07,746.00 C334.48,744.87 332.06,744.43 325.32,744.21 L 316.36 743.93 L 311.54 757.21 C308.89,764.52 304.99,775.00 302.88,780.50 C290.57,812.65 285.72,825.81 285.27,828.29 L 284.76 831.08 L 294.63 830.79 L 304.50 830.50 L 307.03 823.00 ZM 466.00 809.93 C466.00,796.76 466.40,788.11 467.08,786.85 C468.58,784.04 474.01,782.00 479.97,782.00 L 485.00 782.00 L 485.00 773.38 L 485.00 764.76 L 478.99 765.19 C473.82,765.57 472.49,766.10 469.50,769.00 L 466.02 772.37 L 465.39 769.18 L 464.75 766.00 L 456.38 766.00 L 448.00 766.00 L 448.00 798.50 L 448.00 831.00 L 457.00 831.00 L 466.00 831.00 L 466.00 809.93 ZM 613.31 819.50 C615.45,813.45 620.05,800.40 623.53,790.50 C627.02,780.60 632.15,766.21 634.94,758.52 C637.72,750.82 640.00,744.41 640.00,744.27 C640.00,744.12 635.35,744.00 629.66,744.00 L 619.32 744.00 L 617.28 751.25 C614.54,761.01 600.16,806.18 599.62,806.72 C599.38,806.95 598.45,804.53 597.55,801.32 C596.66,798.12 592.44,784.03 588.19,770.00 L 580.46 744.50 L 570.10 744.21 C560.55,743.95 559.79,744.06 560.31,745.71 C560.63,746.70 562.52,752.00 564.52,757.50 C566.51,763.00 570.86,775.38 574.17,785.00 C577.48,794.62 582.13,808.12 584.50,815.00 C586.86,821.88 589.12,828.30 589.52,829.28 C590.15,830.85 591.40,831.03 599.83,830.78 L 609.42 830.50 L 613.31 819.50 ZM 572.31 728.16 C573.86,727.53 574.89,726.62 574.60,726.16 C574.31,725.69 567.65,725.01 559.79,724.63 C520.57,722.77 484.49,713.42 450.50,696.29 C421.16,681.51 405.71,670.49 382.15,647.53 C361.41,627.32 347.42,608.18 333.98,581.58 C323.95,561.76 320.45,552.94 315.11,534.14 C307.52,507.37 305.29,495.31 303.94,473.84 C302.50,450.93 303.99,426.71 308.07,406.60 C311.75,388.52 317.54,366.84 319.99,362.00 C320.97,360.08 323.82,353.47 326.33,347.32 C333.02,330.97 337.18,323.16 347.03,308.51 C359.27,290.30 368.04,279.39 381.20,266.00 C395.54,251.41 405.81,243.00 424.00,230.94 C451.32,212.84 484.27,198.87 515.99,191.95 C527.96,189.34 536.47,188.27 555.71,186.99 C577.02,185.56 580.87,183.30 565.71,181.12 C556.03,179.73 544.11,179.70 527.40,181.02 C515.68,181.95 495.94,184.34 490.62,185.48 C467.90,190.33 448.22,196.61 432.44,204.03 C411.15,214.03 409.27,215.01 401.92,219.84 C397.84,222.52 391.33,226.74 387.46,229.21 C380.14,233.90 370.20,242.22 356.67,255.00 C330.38,279.82 310.82,307.11 296.02,339.61 C286.71,360.03 283.05,370.70 277.63,393.22 C264.27,448.71 268.87,508.23 290.74,562.50 C305.83,599.98 328.97,632.21 362.57,662.57 C403.63,699.67 459.11,723.23 519.00,729.01 C531.19,730.18 568.86,729.59 572.31,728.16 ZM 589.00 710.96 C607.30,709.82 623.63,707.32 638.00,703.47 C650.17,700.20 673.08,691.12 684.00,685.22 C720.33,665.59 751.25,635.55 773.24,598.50 C778.63,589.42 788.00,569.02 788.00,566.35 C788.00,562.67 786.54,563.57 784.12,568.75 C782.01,573.24 778.96,577.98 769.37,591.63 C760.16,604.75 739.33,626.68 726.00,637.30 C685.45,669.60 639.19,686.82 588.00,688.68 C538.51,690.47 489.26,676.20 448.50,648.25 C433.49,637.96 428.53,633.75 413.92,618.93 C391.82,596.51 377.01,573.53 364.99,543.00 C360.46,531.50 358.00,527.68 358.00,532.18 C358.00,540.33 367.79,569.64 376.49,587.50 C386.92,608.92 400.83,628.55 417.68,645.62 C433.37,661.52 448.24,672.58 469.26,684.00 C485.48,692.82 493.07,696.13 507.17,700.56 C525.95,706.46 546.34,710.39 563.00,711.32 C566.03,711.49 569.40,711.71 570.50,711.81 C571.60,711.91 579.92,711.53 589.00,710.96 ZM 591.00 658.01 C606.07,655.87 610.17,654.93 623.19,650.66 C638.15,645.74 657.35,636.54 668.43,628.97 C699.29,607.90 725.31,574.12 736.42,540.74 C738.39,534.81 740.00,529.53 740.00,528.99 C740.00,527.34 735.99,527.87 725.43,530.92 C707.95,535.96 691.04,543.97 681.08,551.93 C677.78,554.57 670.45,561.02 664.79,566.25 C638.84,590.25 605.03,615.64 588.79,623.32 C555.05,639.28 523.95,643.41 489.98,636.46 C481.17,634.66 477.43,633.17 478.65,631.95 C479.27,631.33 482.95,631.69 489.06,632.98 C506.04,636.56 524.68,635.50 549.50,629.54 C566.10,625.55 569.54,624.25 588.10,614.98 C606.90,605.60 612.70,601.27 627.78,585.37 C645.20,567.00 656.01,558.77 679.83,545.75 C698.81,535.37 706.66,532.20 730.94,525.09 C732.28,524.70 733.58,523.77 733.82,523.03 C734.46,521.13 718.50,522.35 702.10,525.44 C695.17,526.75 685.22,528.59 680.00,529.55 C674.78,530.50 666.22,532.85 661.00,534.76 C655.78,536.68 647.29,539.77 642.14,541.63 C617.99,550.36 595.85,563.93 575.47,582.50 C563.80,593.14 562.46,594.08 548.50,601.49 C532.40,610.03 519.68,613.77 502.14,615.09 C494.79,615.65 488.54,615.88 488.26,615.59 C487.77,615.10 492.29,605.68 494.10,603.42 C494.57,602.83 496.22,602.53 497.75,602.75 C505.75,603.92 534.83,593.00 552.54,582.16 C565.18,574.43 565.31,574.34 583.11,560.92 C595.30,551.74 603.20,546.75 612.00,542.69 C627.05,535.75 638.12,531.01 640.67,530.43 C642.23,530.07 648.50,528.29 654.62,526.47 C669.35,522.08 690.51,518.03 699.36,517.89 C703.29,517.83 709.20,517.49 712.50,517.14 L 718.50 516.50 L 713.79 514.18 C708.78,511.71 703.00,505.94 703.00,503.39 C703.00,501.23 712.16,491.03 714.12,491.01 C715.00,491.01 716.80,491.82 718.12,492.81 C722.88,496.43 741.69,508.00 742.81,508.00 C744.24,508.00 744.70,505.96 745.95,494.02 C746.60,487.92 746.61,484.21 745.98,483.58 C745.45,483.05 738.60,481.01 730.76,479.06 L 716.50 475.50 L 715.89 468.50 C715.56,464.65 714.95,460.26 714.54,458.75 C713.82,456.14 713.95,456.00 717.14,456.06 C718.99,456.09 725.67,456.94 732.00,457.94 C746.18,460.19 746.40,460.07 744.89,450.98 C742.79,438.30 744.19,439.62 733.69,440.36 C728.64,440.72 722.92,441.42 721.00,441.92 C719.08,442.43 713.59,443.13 708.82,443.50 L 700.14 444.17 L 697.48 438.55 C696.02,435.46 693.74,432.22 692.41,431.35 C687.88,428.38 689.83,426.02 696.83,425.98 C698.85,425.97 703.42,425.32 707.00,424.53 C710.58,423.73 718.45,422.02 724.50,420.72 C732.56,418.98 735.58,417.92 735.81,416.74 C736.18,414.82 729.51,400.00 728.27,400.00 C727.80,400.00 724.28,401.93 720.45,404.28 C716.63,406.63 710.12,410.41 706.00,412.67 C701.88,414.94 696.21,418.30 693.40,420.14 C690.60,421.99 686.15,424.76 683.53,426.30 C679.33,428.76 678.95,429.25 680.42,430.32 C681.95,431.43 681.84,432.08 679.12,438.09 C677.32,442.04 675.69,447.97 674.99,453.06 C673.88,461.15 673.02,462.95 670.21,462.98 C669.50,462.99 667.58,465.81 665.96,469.25 C663.61,474.22 663.00,476.86 663.00,482.14 C663.00,490.45 665.40,498.05 669.17,501.66 C671.65,504.04 672.35,504.26 674.02,503.22 C677.10,501.29 679.16,501.76 682.70,505.20 C686.86,509.22 687.08,512.62 683.25,513.40 C680.23,514.02 666.30,513.65 665.65,512.94 C665.42,512.70 662.88,508.56 660.01,503.74 C657.13,498.92 654.38,494.73 653.89,494.43 C652.60,493.64 652.86,498.52 654.49,506.00 C656.33,514.44 655.51,515.19 645.01,514.79 L 637.50 514.50 L 636.79 508.50 C635.66,499.08 634.98,496.00 634.02,496.00 C632.71,496.00 631.96,499.06 631.05,508.05 C630.61,512.47 630.03,516.30 629.77,516.56 C628.73,517.61 617.64,520.00 613.84,520.00 L 609.77 520.00 L 610.48 514.29 C610.88,511.14 612.28,505.58 613.60,501.92 C614.92,498.25 616.00,494.24 616.00,493.01 C616.00,491.08 615.77,490.94 614.45,492.04 C613.59,492.75 611.05,496.49 608.80,500.35 C601.67,512.55 593.85,523.45 591.19,524.88 C586.28,527.52 566.00,532.07 566.00,530.53 C566.00,529.60 578.15,511.58 582.80,505.60 C590.69,495.48 598.00,485.09 598.00,484.02 C598.00,483.46 597.66,483.01 597.25,483.03 C596.22,483.07 577.18,496.08 566.56,504.00 C561.77,507.58 555.97,511.87 553.68,513.54 C550.86,515.59 549.40,517.47 549.18,519.29 C548.93,521.46 548.34,522.01 546.18,522.06 C544.71,522.10 540.12,523.79 536.00,525.81 C529.33,529.09 528.03,530.22 524.25,535.97 C521.91,539.52 520.00,541.69 520.00,540.78 C520.00,537.44 525.02,518.39 526.56,515.90 C526.91,515.34 527.94,516.37 528.85,518.19 C532.24,524.98 539.89,522.01 545.04,511.92 C547.32,507.45 547.82,497.00 545.75,497.00 C542.78,497.01 534.75,503.40 531.52,508.32 C530.56,509.80 529.37,511.00 528.89,511.00 C527.66,511.00 527.78,504.94 529.07,501.22 C529.95,498.70 530.67,498.15 533.05,498.22 C534.68,498.27 537.64,497.14 539.78,495.65 C541.89,494.19 543.99,493.00 544.45,493.00 C544.91,493.00 547.59,491.49 550.40,489.65 C553.20,487.81 558.42,484.78 562.00,482.91 C565.58,481.04 570.97,477.88 574.00,475.90 C577.03,473.91 581.41,471.31 583.75,470.12 C586.09,468.93 588.00,467.52 588.00,466.98 C588.00,465.71 583.86,465.72 580.50,467.00 C579.05,467.55 572.61,469.09 566.18,470.43 C552.78,473.21 549.95,474.14 548.05,476.44 C546.34,478.49 545.04,476.89 545.02,472.72 C544.99,468.00 542.14,468.09 537.83,472.94 C534.96,476.18 533.60,477.04 532.26,476.45 C531.29,476.03 529.94,475.78 529.25,475.89 C528.56,476.00 528.00,475.56 528.00,474.92 C528.00,472.73 522.79,462.13 521.47,461.63 C518.52,460.50 516.00,467.68 516.00,477.19 L 516.00 484.09 L 512.69 483.47 C510.54,483.07 505.97,483.75 499.69,485.42 C494.37,486.84 489.84,488.00 489.63,488.00 C489.42,488.00 488.98,489.35 488.65,491.00 C488.17,493.38 487.53,494.00 485.52,494.00 C482.33,494.00 482.28,492.02 485.40,489.09 C488.96,485.75 493.96,474.89 495.23,467.76 C495.85,464.32 496.46,461.35 496.59,461.17 C496.72,460.99 497.81,461.36 499.01,462.01 C501.60,463.39 512.52,461.82 517.25,459.37 C519.88,458.01 520.36,458.01 521.92,459.43 C526.01,463.13 529.00,460.21 529.00,452.53 C529.00,448.20 529.12,447.99 531.06,449.03 C532.21,449.65 534.48,449.83 536.21,449.45 C538.59,448.93 539.18,449.09 538.78,450.14 C535.05,459.87 534.63,461.85 535.92,463.41 C538.82,466.90 542.90,464.26 544.35,457.93 C544.98,455.24 546.05,454.99 576.79,450.38 C579.17,450.02 580.92,449.25 580.72,448.66 C580.35,447.54 557.77,443.54 545.37,442.40 L 538.23 441.75 L 537.36 437.64 C536.22,432.19 533.71,431.69 530.96,436.34 C528.98,439.70 528.80,439.78 526.20,438.42 C524.72,437.65 522.38,437.01 521.00,437.01 C519.62,437.00 513.17,436.25 506.67,435.33 C497.15,433.98 494.68,433.91 494.04,434.93 C493.44,435.91 492.76,435.94 491.13,435.07 C489.96,434.44 489.00,433.66 489.00,433.33 C489.00,432.99 490.77,430.80 492.93,428.46 C498.58,422.33 501.87,410.27 498.76,407.16 C496.52,404.92 500.10,403.75 502.48,405.94 C503.59,406.95 506.08,408.09 508.00,408.46 C511.81,409.19 519.74,411.29 536.00,415.85 C541.78,417.48 550.10,419.57 554.50,420.50 C558.90,421.43 568.27,423.76 575.32,425.69 C582.37,427.62 588.43,428.90 588.79,428.55 C590.03,427.30 587.33,424.65 580.95,420.87 C577.40,418.77 573.83,416.74 573.00,416.37 C572.17,416.00 568.80,413.82 565.50,411.52 C562.20,409.23 556.58,405.61 553.00,403.48 C549.42,401.35 540.20,395.50 532.50,390.49 C509.96,375.83 508.50,375.00 505.23,375.00 C503.04,375.00 501.95,374.43 501.52,373.05 C501.18,371.98 500.06,370.84 499.04,370.51 C498.02,370.19 496.95,369.32 496.67,368.58 C496.15,367.22 484.61,359.35 466.69,348.13 C450.42,337.95 452.03,338.31 445.79,343.39 C437.92,349.80 428.71,360.13 420.37,371.88 C416.31,377.58 413.00,382.61 413.00,383.05 C413.00,383.97 416.83,385.29 426.00,387.54 C429.58,388.42 433.85,389.53 435.50,390.02 C443.56,392.41 466.77,397.95 468.82,397.97 C470.09,397.99 471.92,397.58 472.88,397.06 C474.23,396.34 475.26,396.80 477.40,399.06 C478.92,400.68 480.58,402.00 481.07,402.00 C481.57,402.00 483.18,400.18 484.65,397.95 C487.26,394.01 487.30,393.74 486.12,387.33 C485.45,383.72 485.06,380.61 485.25,380.42 C485.43,380.23 486.51,380.32 487.64,380.61 C488.98,380.97 490.00,382.42 490.59,384.83 C491.75,389.52 494.92,390.25 498.13,386.56 C499.36,385.15 500.73,384.00 501.18,384.00 C502.83,384.00 501.94,388.07 499.92,389.76 C498.77,390.72 497.04,392.17 496.06,393.00 C493.51,395.17 490.92,400.62 491.60,402.40 C491.92,403.24 493.10,404.21 494.22,404.57 C496.02,405.14 495.55,405.87 490.12,411.04 C486.76,414.24 484.00,417.39 484.00,418.03 C484.00,418.66 483.10,420.33 482.00,421.73 C480.90,423.13 480.00,425.78 480.00,427.63 C480.00,429.49 479.50,431.00 478.89,431.00 C478.16,431.00 478.00,429.87 478.43,427.75 C479.77,421.21 479.62,419.48 477.75,419.79 C476.42,420.02 476.00,419.40 476.00,417.21 C476.00,412.32 473.80,403.08 472.35,401.87 C470.42,400.27 467.66,402.95 464.42,409.57 C462.35,413.81 461.90,416.04 462.11,421.13 L 462.37 427.45 L 458.94 428.15 C457.06,428.53 455.06,428.51 454.51,428.10 C451.28,425.73 426.01,420.59 401.42,417.32 L 397.34 416.78 L 395.03 422.14 C390.15,433.46 387.10,449.09 386.30,466.89 L 385.69 480.27 L 390.59 479.61 C408.87,477.15 428.84,473.57 430.66,472.43 C433.25,470.80 434.00,472.01 434.01,477.83 C434.02,486.62 438.88,495.38 444.42,496.59 C446.93,497.14 447.85,496.74 450.34,493.95 L 453.28 490.65 L 452.70 480.43 L 452.12 470.21 L 454.81 469.68 C459.55,468.74 459.99,470.57 457.45,480.50 C456.18,485.45 455.11,490.65 455.07,492.06 C454.94,496.68 452.86,498.27 446.56,498.55 C440.93,498.80 440.69,498.70 435.33,493.85 C432.32,491.12 429.32,489.06 428.67,489.27 C428.03,489.48 427.11,492.55 426.62,496.09 L 425.74 502.53 L 415.12 504.28 C400.41,506.70 390.03,509.34 389.07,510.89 C388.29,512.15 389.09,517.72 390.34,519.74 C390.67,520.28 393.54,521.00 396.72,521.35 C399.90,521.70 408.12,522.63 415.00,523.42 C426.40,524.73 427.61,524.71 428.75,523.23 C429.87,521.79 430.45,522.07 434.04,525.80 C438.40,530.33 441.89,531.15 445.44,528.47 C446.51,527.66 447.79,527.00 448.30,527.00 C449.13,527.00 448.30,542.94 447.41,543.89 C447.21,544.11 446.39,543.74 445.58,543.06 C444.77,542.39 441.72,541.45 438.80,540.97 C435.89,540.48 427.20,538.95 419.50,537.56 C404.19,534.79 400.43,534.49 399.51,535.99 C398.77,537.18 407.43,542.89 411.11,543.66 C412.55,543.95 415.81,545.84 418.36,547.85 C420.91,549.86 427.16,554.76 432.25,558.75 C446.05,569.56 445.89,569.39 446.35,573.60 C447.30,582.23 445.45,582.00 434.90,572.21 C425.48,563.48 418.59,558.27 409.18,552.75 C402.53,548.85 401.00,548.33 401.00,549.97 C401.00,550.50 403.88,556.34 407.39,562.95 C413.83,575.06 422.57,587.83 432.90,600.23 C438.36,606.80 438.62,606.96 443.25,606.98 L 448.00 607.00 L 448.03 610.75 C448.05,612.81 448.61,615.18 449.28,616.02 C451.71,619.04 458.84,624.00 460.75,624.00 C462.55,624.00 464.02,625.17 469.46,630.98 C470.54,632.13 472.56,633.33 473.96,633.65 C475.36,633.98 476.96,634.80 477.52,635.49 C480.16,638.75 507.55,650.44 521.00,654.05 C533.90,657.52 545.90,658.84 565.00,658.89 C575.72,658.91 587.42,658.52 591.00,658.01 ZM 258.07 505.96 C260.68,504.57 260.56,500.61 257.58,489.49 C254.54,478.13 249.64,467.33 243.24,457.87 C236.60,448.06 217.66,429.63 211.17,426.67 C209.89,426.08 208.01,423.98 206.99,421.99 C204.68,417.45 200.33,398.36 198.90,386.50 C197.41,374.03 197.12,372.81 195.83,373.61 C195.05,374.09 194.89,378.11 195.31,386.90 C196.05,402.33 198.25,414.97 201.13,420.41 C202.95,423.84 203.43,427.01 204.11,440.00 C205.03,457.82 207.87,470.86 213.18,481.61 C218.53,492.46 228.64,502.32 237.70,505.56 C242.22,507.17 255.32,507.43 258.07,505.96 ZM 332.37 497.44 C344.79,492.47 354.99,481.67 361.11,467.02 C363.94,460.25 367.00,447.30 367.00,442.08 C367.00,439.15 370.60,433.94 379.74,423.66 C384.18,418.67 389.01,411.03 388.97,409.05 C388.96,408.20 383.44,413.18 376.72,420.13 L 364.50 432.75 L 355.82 435.39 C345.27,438.59 334.28,445.61 327.62,453.42 C317.42,465.35 311.73,485.30 315.09,497.37 L 316.16 501.24 L 321.19 500.57 C323.96,500.20 328.99,498.79 332.37,497.44 ZM 645.57 473.62 C652.36,470.46 657.11,466.12 660.06,460.38 C662.09,456.43 662.50,454.20 662.49,447.07 C662.48,436.83 660.11,430.96 653.81,425.57 C647.15,419.87 643.49,418.56 634.39,418.64 C627.43,418.71 625.54,419.13 620.97,421.61 C607.36,429.01 602.17,446.06 609.14,460.49 C611.82,466.05 618.95,472.51 624.66,474.54 C630.82,476.74 639.71,476.35 645.57,473.62 ZM 258.02 436.43 C260.53,429.83 257.62,403.93 253.01,391.78 C249.21,381.79 240.21,367.55 232.33,359.08 L 224.50 350.65 L 224.50 332.58 C224.50,322.63 224.86,311.24 225.31,307.25 C225.80,302.87 225.75,300.00 225.19,300.00 C222.02,300.00 218.37,330.50 219.37,348.54 C219.83,356.79 219.58,361.59 218.37,367.54 C217.41,372.26 216.75,380.38 216.75,387.50 C216.76,410.97 221.82,423.74 234.61,432.60 C241.03,437.05 246.18,438.90 252.27,438.96 C256.50,438.99 257.16,438.70 258.02,436.43 ZM 334.50 435.64 C342.61,433.48 348.09,430.12 355.00,423.10 C362.04,415.95 366.77,408.63 370.73,398.78 C374.22,390.11 376.02,387.84 384.83,381.09 C393.11,374.73 402.09,366.00 400.34,366.00 C399.36,366.00 396.39,367.91 378.21,380.25 C373.83,383.22 371.73,384.00 368.09,384.02 C349.83,384.10 334.40,391.70 322.86,406.29 C320.25,409.60 318.24,413.78 316.60,419.33 C313.72,429.05 312.68,434.67 313.51,436.02 C314.40,437.45 328.68,437.20 334.50,435.64 ZM 600.00 410.95 C600.00,410.37 597.41,406.48 594.25,402.30 C588.13,394.22 587.63,393.51 582.08,385.03 C580.11,382.02 574.36,373.70 569.30,366.53 C564.23,359.36 558.61,351.36 556.80,348.75 C554.98,346.13 550.43,339.83 546.67,334.75 C542.91,329.66 536.19,320.39 531.74,314.15 L 523.64 302.80 L 519.75 303.42 C511.15,304.80 484.51,315.69 479.00,320.09 L 476.50 322.08 L 479.50 324.52 C481.15,325.86 491.27,333.35 502.00,341.15 C512.72,348.95 523.53,356.99 526.00,359.00 C528.47,361.01 536.12,366.65 543.00,371.53 C549.88,376.41 557.75,382.24 560.50,384.49 C563.25,386.74 569.24,391.26 573.82,394.54 C578.40,397.82 585.37,403.06 589.32,406.18 C596.12,411.56 600.00,413.29 600.00,410.95 ZM 684.63 404.04 C708.19,388.25 717.48,381.44 717.81,379.75 C718.10,378.25 708.35,364.10 707.00,364.05 C705.69,364.00 703.58,366.44 694.45,378.50 C689.05,385.65 683.36,393.08 681.82,395.00 C672.58,406.58 669.41,412.00 671.88,412.00 C672.37,412.00 678.11,408.42 684.63,404.04 ZM 613.95 388.82 C610.91,377.01 609.90,372.64 606.35,356.00 C605.48,351.88 603.27,342.65 601.44,335.50 C599.62,328.35 597.40,318.67 596.50,314.00 C594.30,302.48 593.21,299.29 591.21,298.53 C590.27,298.17 581.86,297.61 572.50,297.29 C550.25,296.53 550.54,296.24 559.26,310.21 C562.79,315.87 567.67,323.79 570.09,327.80 C572.52,331.82 575.96,337.44 577.73,340.30 C579.51,343.16 583.70,350.23 587.05,356.00 C590.39,361.77 595.40,370.10 598.18,374.50 C600.96,378.90 605.28,386.33 607.78,391.00 C612.97,400.73 616.32,405.05 616.81,402.66 C616.98,401.82 615.69,395.60 613.95,388.82 ZM 636.39 393.77 C636.75,390.87 638.37,380.17 639.99,370.00 C647.51,322.70 648.25,316.82 646.84,315.48 C646.10,314.77 642.20,313.03 638.17,311.59 C634.14,310.16 629.92,308.49 628.78,307.88 C625.34,306.04 621.34,305.17 620.02,305.98 C619.05,306.59 619.03,307.90 619.95,312.13 C620.60,315.08 621.98,323.58 623.03,331.00 C625.89,351.30 629.85,376.93 630.92,382.00 C631.44,384.48 632.13,389.15 632.46,392.39 C633.41,401.89 635.30,402.56 636.39,393.77 ZM 657.93 396.91 C659.42,395.21 663.08,390.00 666.07,385.34 C669.05,380.68 674.75,372.06 678.71,366.18 C690.17,349.22 691.22,347.28 690.08,345.15 C688.70,342.58 675.44,332.00 673.59,332.00 C672.66,332.00 671.63,333.63 670.92,336.25 C670.28,338.59 669.17,342.52 668.44,345.00 C667.71,347.48 666.37,352.65 665.45,356.50 C664.54,360.35 662.27,368.08 660.42,373.68 C657.59,382.24 654.00,396.53 654.00,399.25 C654.00,400.72 655.27,399.96 657.93,396.91 ZM 355.22 378.01 C366.57,374.51 380.13,363.69 387.19,352.49 C390.47,347.29 391.44,346.54 401.27,341.54 C414.98,334.57 423.00,329.92 423.00,328.93 C423.00,327.58 422.52,327.70 415.00,331.00 C411.24,332.65 407.57,334.00 406.84,334.00 C406.11,334.00 402.31,335.58 398.39,337.52 L 391.26 341.04 L 385.42 339.52 C377.50,337.46 369.85,337.61 360.41,340.02 C344.19,344.15 329.06,358.48 326.50,372.13 C325.88,375.46 326.03,375.71 329.67,377.25 C335.54,379.73 336.07,379.84 342.64,379.92 C346.17,379.97 351.53,379.15 355.22,378.01 ZM 271.46 370.07 C274.39,364.42 276.28,349.38 275.63,337.00 C274.70,319.31 268.53,299.26 261.36,290.67 C260.06,289.12 259.00,286.59 259.00,285.05 C259.00,280.11 261.85,265.80 265.04,254.66 C268.01,244.32 268.24,241.36 265.91,243.69 C262.70,246.90 253.00,280.31 253.00,288.13 C253.00,289.90 251.21,294.98 249.01,299.42 C242.81,311.99 241.50,318.21 241.50,335.00 C241.50,348.05 241.73,349.96 243.77,354.10 C248.15,363.01 260.39,372.84 267.22,372.95 C269.25,372.99 270.34,372.25 271.46,370.07 ZM 400.65 324.50 C405.91,321.84 412.76,317.30 416.48,314.02 C423.40,307.91 426.17,306.66 444.42,301.37 C449.88,299.79 454.55,297.88 454.80,297.12 C455.37,295.38 448.98,296.16 438.12,299.15 C429.25,301.59 424.05,301.25 414.70,297.63 C399.40,291.71 378.77,295.80 366.38,307.21 C361.57,311.65 355.00,320.10 355.00,321.86 C355.00,323.38 359.60,325.60 367.66,327.97 C372.87,329.51 376.51,329.89 382.94,329.59 C390.62,329.23 392.21,328.78 400.65,324.50 ZM 296.29 315.23 C298.82,312.43 303.62,300.25 305.63,291.50 C306.89,286.04 307.48,279.53 307.49,271.00 C307.50,259.62 307.21,257.60 304.25,248.39 C302.46,242.83 301.00,237.16 301.00,235.79 C301.00,232.63 309.09,211.24 312.45,205.49 C313.85,203.10 314.98,200.32 314.96,199.32 C314.83,193.71 298.81,222.10 295.98,232.95 C295.34,235.40 293.38,239.07 291.63,241.11 C287.11,246.39 279.53,260.36 277.04,268.00 C275.87,271.58 274.42,277.93 273.82,282.12 C272.84,288.93 272.95,290.47 274.83,296.62 C277.23,304.48 281.33,309.98 287.89,314.14 C293.15,317.48 294.14,317.61 296.29,315.23 ZM 428.49 286.46 C431.74,285.61 438.25,282.72 442.95,280.04 C450.15,275.92 452.62,275.05 458.63,274.46 C470.36,273.32 471.39,271.22 460.79,270.07 C454.53,269.39 451.59,268.15 445.10,263.46 C439.84,259.65 434.56,258.58 421.00,258.54 C407.04,258.50 405.39,259.03 393.75,267.38 C385.99,272.94 385.44,275.29 390.80,280.05 C396.97,285.52 403.85,287.86 414.04,287.94 C418.74,287.97 425.24,287.31 428.49,286.46 ZM 486.42 271.39 C489.15,270.34 488.14,269.00 484.62,269.00 C482.76,269.00 480.68,269.67 480.00,270.50 C478.94,271.78 479.21,272.00 481.80,272.00 C483.47,272.00 485.55,271.73 486.42,271.39 ZM 338.00 258.34 C347.71,243.60 351.79,226.41 350.61,205.24 L 349.99 193.97 L 353.48 187.03 C355.40,183.22 358.23,178.61 359.77,176.80 C365.87,169.59 371.25,161.91 370.63,161.30 C369.14,159.80 357.45,173.34 348.45,187.00 C345.73,191.12 338.95,199.56 333.38,205.74 C321.93,218.46 316.76,227.25 314.99,237.00 C312.68,249.77 317.12,263.06 325.36,268.07 C328.40,269.92 328.46,269.92 330.86,267.72 C332.19,266.50 335.41,262.28 338.00,258.34 ZM 476.49 253.47 C480.75,252.08 485.12,250.47 486.20,249.90 C487.56,249.16 492.52,249.19 502.69,249.98 C510.68,250.60 517.50,250.84 517.83,250.50 C519.04,249.29 515.86,248.39 503.88,246.56 C492.49,244.83 491.46,244.48 488.10,241.27 C478.19,231.79 469.15,227.83 457.00,227.63 C450.45,227.53 446.96,228.03 441.80,229.81 C434.03,232.50 428.65,235.84 428.18,238.28 C427.44,242.13 433.19,247.44 444.81,253.61 C451.36,257.10 465.58,257.03 476.49,253.47 ZM 550.00 236.17 C550.00,235.71 545.45,233.82 539.89,231.96 C532.61,229.53 529.33,227.91 528.20,226.18 C527.34,224.86 523.54,221.19 519.77,218.01 C511.62,211.15 505.32,209.00 493.43,209.01 C480.50,209.01 473.91,211.99 475.53,217.10 C476.68,220.71 485.05,228.99 490.18,231.59 C497.07,235.08 509.59,235.88 520.04,233.49 C527.48,231.79 528.20,231.78 531.73,233.34 C537.21,235.76 550.00,237.74 550.00,236.17 ZM 589.52 233.02 C589.18,232.49 584.77,230.02 579.71,227.54 C571.25,223.39 570.21,222.56 567.00,217.31 C559.08,204.38 537.41,195.46 525.75,200.33 C521.59,202.07 521.20,203.53 523.64,208.30 C527.15,215.16 531.12,218.95 538.77,222.73 C546.37,226.48 546.45,226.50 557.82,226.29 C567.76,226.11 569.78,226.36 573.37,228.21 C582.08,232.70 590.95,235.34 589.52,233.02 ZM 379.56 223.63 C392.29,210.39 398.32,197.47 400.02,179.80 C400.62,173.58 401.37,167.61 401.70,166.52 C402.02,165.44 407.46,159.25 413.80,152.77 C420.14,146.30 424.69,141.00 423.91,141.00 C420.40,141.01 402.89,155.55 398.62,162.00 C397.24,164.09 392.48,168.16 387.71,171.33 C371.88,181.87 361.28,196.65 360.24,209.65 C359.58,217.78 360.41,221.68 363.99,227.32 C368.27,234.08 369.88,233.69 379.56,223.63 ZM 614.00 223.10 C614.00,222.60 612.76,221.69 611.25,221.07 C604.19,218.17 601.34,215.70 598.78,210.25 C596.57,205.56 593.36,202.71 585.50,198.50 C580.99,196.08 579.82,195.88 573.57,196.43 C565.09,197.18 563.86,198.03 565.07,202.24 C567.47,210.62 578.30,216.82 592.50,217.96 C599.09,218.48 602.84,219.35 606.50,221.20 C611.98,223.97 614.00,224.48 614.00,223.10 ZM 429.52 197.93 C446.40,188.10 456.95,172.21 461.46,149.84 C462.03,146.98 472.93,137.35 483.25,130.58 C486.41,128.50 489.00,126.67 489.00,126.51 C489.00,126.34 487.54,126.54 485.75,126.95 C481.62,127.89 470.41,134.72 462.00,141.41 C458.42,144.25 453.70,147.17 451.50,147.89 C445.20,149.95 433.99,156.91 428.28,162.31 C418.20,171.82 414.75,180.20 416.40,191.19 C417.05,195.53 420.25,202.00 421.75,202.00 C422.18,202.00 425.67,200.17 429.52,197.93 ZM 618.92 196.07 C623.09,194.47 627.74,192.88 629.25,192.56 C632.91,191.77 632.72,190.33 628.75,188.66 C626.96,187.91 623.47,185.58 621.00,183.50 C615.05,178.49 609.51,176.05 604.00,176.03 C597.41,176.00 592.76,177.60 589.51,180.99 C587.92,182.65 586.04,184.00 585.31,184.00 C584.59,184.00 584.00,184.35 584.00,184.77 C584.00,186.16 593.33,196.23 596.44,198.20 C600.53,200.78 608.72,200.00 618.92,196.07 ZM 488.28 175.41 C496.26,171.43 496.20,171.47 504.81,162.66 C512.46,154.83 513.17,153.74 516.00,145.39 C518.39,138.34 519.88,136.78 529.70,131.12 C538.49,126.05 539.82,124.44 534.50,125.31 C532.40,125.65 527.04,128.14 522.59,130.84 C516.51,134.54 513.24,135.87 509.43,136.22 C503.71,136.73 485.54,144.94 480.31,149.37 C478.55,150.86 475.74,154.83 474.06,158.20 C471.59,163.14 471.00,165.57 471.00,170.83 C471.00,181.98 473.70,182.69 488.28,175.41 ZM 585.87 174.55 C596.75,171.65 607.19,164.53 613.50,155.70 C615.47,152.94 621.51,150.96 635.50,148.48 C639.28,147.81 639.37,147.72 637.04,146.84 C635.46,146.24 632.24,146.31 628.04,147.03 C624.44,147.65 613.85,148.50 604.49,148.93 C588.64,149.65 587.08,149.90 581.67,152.55 C574.45,156.08 571.04,159.89 568.56,167.18 C566.96,171.89 566.86,173.12 567.94,174.43 C569.62,176.45 578.50,176.51 585.87,174.55 ZM 543.51 169.55 C552.23,165.30 561.60,156.92 566.80,148.74 C569.68,144.21 572.03,141.82 575.38,140.02 C577.92,138.66 580.00,137.22 580.00,136.83 C580.00,135.22 578.20,135.31 572.50,137.20 C569.20,138.29 562.45,139.53 557.50,139.95 C542.89,141.18 532.10,146.51 525.67,155.67 C522.62,160.00 521.24,166.82 522.43,171.57 C523.10,174.25 523.15,174.26 529.80,173.62 C534.41,173.17 538.69,171.90 543.51,169.55 ZM 595.29 133.02 C597.37,132.60 599.40,131.91 599.79,131.49 C600.95,130.23 591.39,131.82 587.81,133.48 L 584.50 135.02 L 588.00 134.41 C589.92,134.07 593.21,133.45 595.29,133.02 ZM 397.37 815.08 C392.68,812.22 390.57,805.84 391.27,796.60 C391.86,788.80 393.39,784.76 397.00,781.50 C399.97,778.81 408.38,778.75 412.28,781.39 L 415.05 783.26 L 414.78 797.84 L 414.50 812.42 L 411.10 814.71 C406.93,817.52 401.60,817.66 397.37,815.08 ZM 516.18 815.75 C512.04,813.76 510.00,808.07 510.00,798.51 C510.00,784.31 513.29,779.50 523.00,779.50 C527.17,779.50 529.35,780.00 530.78,781.30 C535.68,785.73 537.07,803.04 533.15,810.72 C531.96,813.04 530.12,815.40 529.06,815.97 C526.56,817.31 519.15,817.18 516.18,815.75 ZM 736.40 790.59 C735.55,788.38 738.78,783.11 742.30,780.96 C746.16,778.61 751.74,778.43 754.78,780.56 C757.41,782.40 760.00,787.06 760.00,789.95 C760.00,791.90 759.43,792.00 748.47,792.00 C739.47,792.00 736.82,791.69 736.40,790.59 ZM 316.55 797.07 C316.23,796.56 317.05,792.84 318.37,788.79 C319.69,784.75 321.56,778.62 322.53,775.18 C324.22,769.16 325.50,768.01 327.13,771.06 C328.97,774.51 335.12,796.00 334.53,796.95 C333.73,798.25 317.34,798.36 316.55,797.07 ZM 470.58 616.78 C469.59,616.23 467.23,616.03 465.34,616.33 C462.35,616.82 461.79,616.57 460.95,614.38 C460.43,613.00 460.00,610.77 460.00,609.43 C460.00,607.02 460.06,607.00 470.11,607.00 C481.35,607.00 481.30,606.95 476.70,613.73 C474.09,617.58 472.98,618.13 470.58,616.78 ZM 507.18 574.83 C507.36,573.63 508.06,572.47 508.75,572.25 C510.56,571.65 511.57,575.03 509.90,576.09 C507.64,577.51 506.84,577.14 507.18,574.83 ZM 500.00 568.00 C500.00,567.45 500.45,567.00 501.00,567.00 C501.55,567.00 502.00,567.45 502.00,568.00 C502.00,568.55 501.55,569.00 501.00,569.00 C500.45,569.00 500.00,568.55 500.00,568.00 ZM 514.00 559.04 C514.00,557.52 514.65,557.00 516.56,557.00 C519.34,557.00 519.06,558.36 515.94,560.03 C514.31,560.90 514.00,560.74 514.00,559.04 ZM 483.96 557.68 C481.50,555.44 462.15,547.00 459.49,547.00 C456.69,547.00 456.54,546.30 456.92,535.00 C457.25,524.97 457.55,524.44 461.15,527.47 C462.80,528.86 465.02,530.00 466.08,530.00 C467.13,530.00 468.80,530.79 469.77,531.75 C470.75,532.71 474.23,534.35 477.52,535.39 C489.26,539.10 489.23,539.08 488.59,543.00 C488.28,544.92 488.02,549.31 488.01,552.75 C488.00,559.24 487.02,560.44 483.96,557.68 ZM 504.98 553.25 C504.97,551.19 504.07,547.54 502.98,545.14 C500.38,539.41 500.46,538.94 503.96,539.64 C511.31,541.11 513.12,538.71 513.12,527.53 C513.12,522.36 512.57,520.43 509.56,515.11 C507.60,511.64 506.00,508.40 506.00,507.90 C506.00,505.96 509.10,507.13 509.96,509.40 C511.26,512.82 514.98,516.00 517.69,516.00 C519.55,516.00 520.00,516.54 519.98,518.75 C519.96,523.91 517.21,532.89 510.42,550.00 C507.24,558.01 505.01,559.34 504.98,553.25 ZM 520.75 555.34 C522.74,554.54 522.20,552.18 519.75,550.90 C518.51,550.26 517.39,549.64 517.25,549.53 C516.75,549.13 519.20,543.00 519.85,543.02 C520.21,543.03 521.17,544.49 522.00,546.27 C522.83,548.04 524.52,549.99 525.77,550.60 C527.01,551.20 528.29,551.96 528.61,552.28 C529.41,553.07 523.50,556.02 521.30,555.92 C520.25,555.88 520.02,555.63 520.75,555.34 ZM 493.63 530.30 C493.32,529.99 493.53,528.88 494.09,527.83 C494.65,526.78 495.04,525.15 494.94,524.21 C494.85,523.27 494.83,521.83 494.90,521.00 C495.17,517.93 496.97,522.37 496.98,526.14 C497.00,529.49 495.14,531.80 493.63,530.30 ZM 448.00 512.08 C448.00,509.95 448.48,509.00 449.57,509.00 C450.68,509.00 451.04,509.78 450.82,511.67 C450.36,515.57 448.00,515.91 448.00,512.08 ZM 459.00 510.50 C459.00,508.99 459.57,508.00 460.44,508.00 C462.33,508.00 463.16,509.43 462.40,511.41 C461.42,513.95 459.00,513.30 459.00,510.50 ZM 694.25 500.85 C690.05,497.90 688.55,494.01 691.02,492.49 C692.46,491.60 701.25,500.89 700.60,502.61 C699.87,504.50 699.18,504.30 694.25,500.85 ZM 466.40 497.03 C464.14,496.03 462.06,494.60 461.79,493.85 C461.06,491.93 462.61,480.28 464.29,474.98 C465.07,472.52 466.30,468.59 467.02,466.25 C468.49,461.46 468.99,461.16 470.77,464.00 C472.63,466.98 479.00,466.71 482.82,463.50 C485.83,460.97 489.00,460.19 489.00,461.98 C489.00,462.52 486.86,464.06 484.25,465.40 C474.94,470.17 466.08,481.94 466.02,489.60 C466.00,492.88 468.04,495.32 471.75,496.45 C472.99,496.83 474.00,497.55 474.00,498.07 C474.00,499.48 470.97,499.07 466.40,497.03 ZM 446.18 461.90 C444.01,459.21 443.95,457.00 446.03,457.00 C447.41,457.00 450.30,463.11 449.34,464.00 C448.88,464.43 447.46,463.48 446.18,461.90 ZM 471.65 448.24 C471.39,447.82 471.79,446.03 472.54,444.25 C473.49,442.00 474.36,441.20 475.45,441.62 C477.56,442.43 477.40,444.20 474.96,446.81 C472.73,449.21 472.35,449.37 471.65,448.24 Z" fill="rgb(251,252,251)"/>
</g>
</svg>